<svg xmlns="http://www.w3.org/2000/svg" width="168.12" height="140.73" viewBox="0 0 168.12 140.73"><defs><style>.cls-1{fill:#383b50;fill-rule:evenodd;}</style></defs><g id="Layer_2" data-name="Layer 2"><g id="Layer_1-2" data-name="Layer 1"><path class="cls-1" d="M92.86,43.1c0-.06-.07-.18-.11-.19-.93-.15-1.38-.9-1.9-1.55a3.79,3.79,0,0,0-.34-.43A33.22,33.22,0,0,1,87.9,38.5c-1-1-2.2-1.87-3.29-2.82a11.4,11.4,0,0,1-2.32-2.22,36,36,0,0,0-3.13-3.91,19.1,19.1,0,0,0-3-3.29.53.53,0,0,1-.08-.86,1.78,1.78,0,0,1,1.59-.86c.37,0,.9.08.92-.34s-.5-.41-.86-.49c-.9-.21-1.79-.46-2.69-.7-.43-.11-.85-.27-1.28-.35a1.22,1.22,0,0,0-1.4.42,1.74,1.74,0,0,0,.25,1.68Q74,26.38,75.41,28c.48.57,1,1.13,1.41,1.72.2.28.52.61.23,1s-.69.06-1-.38A25.74,25.74,0,0,0,74.23,28a9.08,9.08,0,0,0-1.68-1.23c-.06,0-.29.06-.34.15a2.05,2.05,0,0,0,.42,2.6,23.22,23.22,0,0,1,4.2,4.87,1,1,0,0,0,.38.4c1.52.83,2.16,2.5,3.48,3.55a10.71,10.71,0,0,1,2.36,2.84,17.84,17.84,0,0,1,1.71,2.45c.23.55.95.88,1.45,1.32a3.2,3.2,0,0,1,.57.53c1,1.41,2.36,2.56,3.22,4.08a.5.5,0,0,0,.15.17A6.74,6.74,0,0,1,92,51.92a14.79,14.79,0,0,0,1.53,1.72c.66.77,1.44,1.44,2.16,2.17a1.14,1.14,0,0,1,.38.53c.09.46.46.64.75.91A14.54,14.54,0,0,1,98,58.56c.38.45.68,1,1.09,1.39a1.69,1.69,0,0,0,1.63.49c.54-.12,1.09-.24,1.61-.41a2.73,2.73,0,0,0,.62-.4l-.56-.45c-.23-.18-.45-.37-.69-.55-.59-.45-.64-1.27-1.29-1.73A9.22,9.22,0,0,1,99,55.34a1.22,1.22,0,0,1-.22-.38.22.22,0,0,1,0-.19s.17-.07.19-.05c.64.68,1.64.77,2.24,1.59a6.82,6.82,0,0,0,2.23,2.14,1.44,1.44,0,0,1,.54.67c.19.46.46.45.88.36,1.13-.23,2.27-.41,3.41-.58a2.6,2.6,0,0,1,.88,0,1.67,1.67,0,0,0,1.18-.12.79.79,0,0,1,1.18.71c0,.19-.21.44-.39.6a10,10,0,0,1-3.59,1.71L103.81,63a4.55,4.55,0,0,0-.72.3,7.18,7.18,0,0,1-2.55.71,20.12,20.12,0,0,0-4.76,1.07c-1.28.48-2.62.82-3.93,1.22-1.77.54-3.54,1.11-5.32,1.63-.82.23-1.67.37-2.5.58-1.58.4-3.16.84-4.75,1.22-2,.49-4.06.92-6.09,1.38-.18,0-.47,0-.53.12-.44.75-1.09.43-1.7.4-1.66-.1-3.32-.17-5-.24a.78.78,0,0,1-.22,0,.7.7,0,0,1-.21-.21s.07-.14.12-.15c.89-.16,1.7-.71,2.69-.45a4.68,4.68,0,0,0,2.29,0,3.5,3.5,0,0,0,2.55-1.24c.25-.37.81-.51,1.19-.81s.45-.73,0-1.1c-.23-.18-.51-.31-.74-.49a8.47,8.47,0,0,1-2-2.14,4.9,4.9,0,0,0-1.19-1.17c-2.06-1.51-4.09-3-6.73-3.51A16.08,16.08,0,0,0,60,60c-.18,0-.36-.13-.54-.2.13-.14.25-.39.4-.41,1.06-.12,2.13-.2,3.2-.29a8.06,8.06,0,0,0,1.3-.12c.54-.12.58-.24.27-.62s-.71-1.1-1.53-.81c-.11,0-.28-.06-.42-.12-1.77-.87-3.49-.3-5.19.23a1.53,1.53,0,0,1-1.15.1,2.69,2.69,0,0,0-1.1,0,9.94,9.94,0,0,0-1.09,0c-.93.1-1.34-.36-1.52-1.23-.08-.41-.24-.73.09-1.12a2.87,2.87,0,0,0,.25-2.55c-.08-.45-.53-.33-.84-.24a.82.82,0,0,1-1-.41c-.27-.45-.22-.87.28-1,1.35-.3,2.57-1.18,4.07-.81a7.47,7.47,0,0,0,1.77.12c.5,0,.74-.26.54-.7-.3-.65-.29-1.5-1.14-1.83a.57.57,0,0,1-.17-.54A1.44,1.44,0,0,0,56,46c-.3-.4-.44-1-1.13-.92-.23,0-.24-.13-.22-.37.08-1.55-.91-2.48-2-3.28-.26-.19-.7-.11-1.06-.18-.11,0-.21-.16-.32-.24.07-.08.11-.19.19-.24.65-.37.65-.36.3-.87a5.37,5.37,0,0,0-.52-.73c-.25-.25-.53-.6-.85-.66A17.68,17.68,0,0,0,48,38.32c-.52,0-1,0-1.55,0-1.4,0-2.8.09-4.2.1a2.6,2.6,0,0,0-2.35,1c-.09.13-.19.37-.13.49s.31.16.48.16c1.15,0,2.3.06,3.45.07.41,0,.81,0,1.22-.06a8.29,8.29,0,0,1,2.53.14c1,.26,2,.34,3,.51.08,0,.15.12.22.18s-.09.14-.14.15a2.22,2.22,0,0,1-1,.1c-.91-.36-1.91,0-2.82-.46-.31-.15-.83.07-1.25.16a41.44,41.44,0,0,1-5.89.3,5.14,5.14,0,0,0-.88,0c-.35.06-.29.14,0,.37s0,.58-.21.84c-.37.5-.29.75.28.76a17.71,17.71,0,0,0,3-.12,12.07,12.07,0,0,1,5.45.5,6.78,6.78,0,0,0,2.51.25,3.2,3.2,0,0,1,1.51.21c.12.06.18.29.21.46s-.22.16-.34.16c-.7,0-1.41,0-2.11,0a5.16,5.16,0,0,1-2.48-.41c-.37-.18-.79-.49-1.27-.22-.06,0-.21-.14-.32-.18s-.36-.17-.44-.12a1.28,1.28,0,0,1-1.17.08,1.49,1.49,0,0,0-.86,0c-.73.27-1.56-.06-2.27.43-.16.11-.5-.05-.75-.06A2.32,2.32,0,0,0,37,45.33c-.23.48-.14.71.38.77s1,0,1.55.13c.76.11,1.51.3,2.27.4a7,7,0,0,0,1.21,0c.7,0,1.42,0,1.86.66a1.23,1.23,0,0,1,.06.39l-.3,0a4.68,4.68,0,0,0-.83-.09,4.86,4.86,0,0,1-2.38-.4,1.07,1.07,0,0,0-.41-.15c-1.11,0-2.22,0-3.32,0-.6,0-1.26.85-1.34,1.46a.41.41,0,0,0,.41.54c.58.06,1.18.13,1.77.14a6.32,6.32,0,0,1,2.82.42c.11.06.28,0,.42,0,.81,0,1.62-.09,2.44-.11,1.26,0,2.52-.07,3.78-.06.31,0,.83-.18.86.24s-.46.26-.76.29a13.94,13.94,0,0,0-1.42.22c-.48.1-.61.34-.44.81.3.81.65,1.59.93,2.39a1.34,1.34,0,0,1,.08.93,4.14,4.14,0,0,0-.37,2.17,3,3,0,0,1-.51,1.9c-.29.37-.09.52.28.59l1.5.28v0c-.25.38-.65.3-1,.31-.6,0-1.19,0-1.78,0-.22,0-.52,0-.63.14-.64.74-1.58.66-2.38.79a11,11,0,0,1-4.31.14,1.62,1.62,0,0,1-1-.42c-.75-.92-1.74-.75-2.72-.56a7.38,7.38,0,0,1-2.73.16,2.77,2.77,0,0,0-1.69.34,4.39,4.39,0,0,0-2.13,2.14,10.81,10.81,0,0,1-1.38,1.88,2.51,2.51,0,0,0-.55,1.76c0,1.15.08,2.3.13,3.45,0,.38.33.49.62.52.59.06,1.19.06,1.79.08l6.12.3a2.43,2.43,0,0,1,.77.12,6.85,6.85,0,0,0,4.11.6c1,.53,2.09.1,3.13.13,1.86.06,3.71.2,5.57.3a.88.88,0,0,1,.79.53c0,.09.06.19.1.29l-.32,0c-1.82,0-3.64,0-5.45,0-.77,0-1.54.09-2.3.12a8.26,8.26,0,0,1-1-.08,4.51,4.51,0,0,0-.88-.11,21.52,21.52,0,0,1-5.7-.72,8.36,8.36,0,0,0-1,0c-1.49,0-3,0-4.46-.09A4.36,4.36,0,0,1,26,70.92a5.08,5.08,0,0,0-.52-.15,3.61,3.61,0,0,0-.08.64c0,.14.12.27.15.41a2.56,2.56,0,0,1,0,.62c0,.39-.17.79-.17,1.18,0,1.67.09,3.34.09,5,0,2,0,4.09-.07,6.13,0,.67-.1,1.34-.17,2-.05.42.12.68.53.68a9,9,0,0,1,2.6.51,8.5,8.5,0,0,0,1.94.25c1.5.13,3,.09,4.53.23s2.79.44,4.18.66l2.52.37a5,5,0,0,1,.62.21,3,3,0,0,1-.44.55.87.87,0,0,1-.51.1c-.83,0-1.63-.5-2.5-.23-.86-.71-1.93-.37-2.89-.53a19.57,19.57,0,0,0-2.87,0,11.28,11.28,0,0,1-1.75-.09,19.33,19.33,0,0,1-3.67-.77,6,6,0,0,0-1.87-.18.45.45,0,0,0-.52.45c-.07.63-.2,1.25-.21,1.88,0,1.29-.07,2.58-.18,3.87a13.17,13.17,0,0,0,.3,3c.09.66.28,1.31.39,2,.07.43.32.59.7.48a3.87,3.87,0,0,1,2.66.48,11.39,11.39,0,0,0,2.21.71q3.42.78,6.85,1.47a9.21,9.21,0,0,0,1.66.12,14.81,14.81,0,0,1,4,.37,12.85,12.85,0,0,0,1.64.18c.62.08,1.24.19,1.85.29l2.07.36a2.09,2.09,0,0,1,.86.19,2,2,0,0,0,1.49.26,1.68,1.68,0,0,1,1.18.12,1.29,1.29,0,0,0,.85,0,6.34,6.34,0,0,1,2.74.34.64.64,0,0,1,.31.28c.21.39.41.43.77.14a.8.8,0,0,1,.73-.07c.9.62,2,.12,3,.7a2.16,2.16,0,0,0,1.41.1,14.21,14.21,0,0,1,5.08.14,16.6,16.6,0,0,1,2.46.14,5.11,5.11,0,0,1,1.1.46,1.81,1.81,0,0,0,2-.2.38.38,0,0,0,0-.37,1.61,1.61,0,0,0-.57-.32,19.48,19.48,0,0,0-2.24-.6,10.22,10.22,0,0,0-1.66,0c-1.36,0-2.71-.18-4.08-.12a7.4,7.4,0,0,1-2.33-.59c-.15,0-.24-.3-.35-.46.18-.11.36-.32.53-.3a17.25,17.25,0,0,1,1.73.27,2,2,0,0,0,.54.05,3.9,3.9,0,0,1,2.49.22,5.7,5.7,0,0,0,1.94,0,4.11,4.11,0,0,1,.86,0c.48.1,1,.6,1.41-.06a.12.12,0,0,1,.1,0c1,.73,1.22-.54,1.88-.67.06,0,.14-.18.13-.27s-.12-.17-.2-.19a10.5,10.5,0,0,0-3.53-.48,6.36,6.36,0,0,1-3.15-.92,1.67,1.67,0,0,0-.83-.2,13.34,13.34,0,0,1-6-.73,1.94,1.94,0,0,0-.75-.12c-.81,0-1.61.14-2.42.19a6.69,6.69,0,0,1-2.72-.52.38.38,0,0,1-.18-.32.39.39,0,0,1,.31-.21,7.87,7.87,0,0,0,3.17,0,9.94,9.94,0,0,1,2.43.09c.22,0,.42.23.64.31s.36.06.42,0c.32-.43.71-.28,1.1-.17s.7.13.15.48c0,0,0,.32,0,.33.24.07.55.21.73.12a3.82,3.82,0,0,1,2.22-.27,11.53,11.53,0,0,1,2.58.47,3,3,0,0,0,1.8.24.58.58,0,0,1,.43,0c.91.52,1.89.23,2.84.29.35,0,.57-.1.58-.49,0-.22,0-.45,0-.67a.64.64,0,0,0-.54-.73.43.43,0,0,0-.22,0c-1.27.22-2.23-.63-3.35-1a.83.83,0,0,1-.3-.14c-.1-.1-.25-.28-.22-.34s.24-.33.36-.32c.66,0,1.32.13,2,.21a10.13,10.13,0,0,0,1.43.17c.77,0,1.08-.41,1-1.15-.06-.37-.16-.53-.58-.32a1.07,1.07,0,0,1-.74-.06c-.12,0-.22-.31-.19-.44s.26-.21.41-.21.35.14.52.15a.49.49,0,0,0,.61-.49c0-.34,0-.67,0-1,0-1.14,0-1.13-1.13-1.24a1.39,1.39,0,0,1-.53-.14,3.41,3.41,0,0,0-2.07-.13,4.35,4.35,0,0,1-1.08,0,1.84,1.84,0,0,1-.59-.24,4.56,4.56,0,0,1,.37-.65.54.54,0,0,1,.38-.21c1.23,0,2.51-.34,3.65.48.56.4,1,.15,1-.55s-.43-1.24-1.25-1.1a8.25,8.25,0,0,1-3.64-.22,4.71,4.71,0,0,0-2.56-.38s-.13-.07-.14-.12a.26.26,0,0,1,.07-.19c.23-.2.46-.38.69-.56l0,0a2.56,2.56,0,0,1,.75-.15c.43,0,.93-.08,1.18.54.17.43.55.6.92.07a.67.67,0,0,1,.5-.14c.66,0,1.32.15,2,.21a6.33,6.33,0,0,0,.87,0,.46.46,0,0,0,.46-.52,2.8,2.8,0,0,0,0-.77,2.71,2.71,0,0,1,.13-1.73,7.09,7.09,0,0,0,.29-2,.57.57,0,0,0-.33-.45c-.58-.17-.32-.47-.06-.58.79-.32.72-.92.61-1.55,0-.3-.14-.58-.18-.88-.15-.89-.5-1.14-1.41-1.16-1.13,0-2.26-.09-3.39-.2-.72-.08-1-.51-.81-1s.49-.51.73-.16a.77.77,0,0,0,.82.37c1.16-.06,2.33-.09,3.5-.06.33,0,.51-.06.58-.36s.21-.68-.26-.84a2.38,2.38,0,0,0-.54-.14,2.55,2.55,0,0,1-1.42-.56,2.21,2.21,0,0,0-1-.41c-.58-.1-.36-.27-.11-.53a1.13,1.13,0,0,1,1.55-.37c.23.11.36.25.23.53,0,.09,0,.23.06.36.13,0,.33-.07.38-.16a.91.91,0,0,1,.91-.49c.54,0,.65-.4.69-.84s-.21-.66-.63-.76a10.91,10.91,0,0,0-3.81-.47c-.1,0-.31-.14-.3-.19,0-.34-.1-.26-.31-.17s-.37.14-.4.09c-.42-.61-.85-.11-1.27,0-.18,0-.38.19-.52.15a3.59,3.59,0,0,0-2.31-.08c-.19.06-.24-.1-.14-.28s.14-.48.58-.52c.84-.07,1.66-.42,2.5-.5a3.57,3.57,0,0,1,2.84.53,1.41,1.41,0,0,0,1.21.37,11.67,11.67,0,0,1,1.44.07,1.91,1.91,0,0,0,1.71-.59,1.12,1.12,0,0,1,.56-.32c1.07-.3,2.14-.58,3.21-.85a1.17,1.17,0,0,1,.41,0,.86.86,0,0,1-.25.22c-.64.26-1.27.55-1.93.76s-.63.18-.54.86a3.74,3.74,0,0,1-.12,2.29,1,1,0,0,0-.09.55,2.63,2.63,0,0,1-.31,2,.81.81,0,0,0,.13.8c.74.64.56,1.35.31,2.13a1.59,1.59,0,0,0,.07,1.68c.06.07,0,.3-.11.44s-.23.61-.45.75c-.39.25-.43.42-.13.77.12.15.21.49.12.61-.37.52.45.76.24,1.2s-.37.72-.55,1.08a.52.52,0,0,0,0,.22c-.15,1.16-.08,1.22,1,.88.64-.19,1.28-.37,1.93-.54a.9.9,0,0,1,.43,0c.09,0,.23.12.24.2s-.06.33-.14.36a5.73,5.73,0,0,1-2,.62c-.87,0-1.06.58-1.38,1s.31,1.11.93,1c.28,0,.54-.22.83-.3.08,0,.27,0,.28.09s0,.33-.06.39a1.65,1.65,0,0,1-.58.28,1.42,1.42,0,0,0-1.19,1.81c.1.73.23,1.47.31,2.21,0,.48,0,.94.6,1.2a.48.48,0,0,1,.07.84,1.68,1.68,0,0,0-.45,1.43c0,.75,0,.78.92.8.15.52,0,.82-.56,1s-.86.69-.64,1,.61.09.92,0c.84-.26,1.67-.55,2.53-.77s1.59-.29,2.37-.49c1.28-.34,2.55-.74,3.83-1.11a.72.72,0,0,0,.21,0s.09-.13.07-.17a.22.22,0,0,0-.15-.12,5.73,5.73,0,0,1-2-.1,3.63,3.63,0,0,0-2.9.16,8.5,8.5,0,0,1-3.74.76,4.18,4.18,0,0,1,2.11-1.32A6,6,0,0,1,81.68,99c.68,0,.79-.27.44-.91-.1-.19-.22-.38-.31-.59-.35-.82-.35-.82-1.21-.46-.68.29-1.36.59-2.06.83a1.71,1.71,0,0,1-.87,0c-.29-.06-.73,0-.74-.48,0-.08.42-.16.64-.26.94-.43,1.88-.84,2.81-1.29.7-.35.69-.37.59-1.11,0-.33-.12-.66-.16-1-.17-1.29-.55-1.69-1.88-2-.16,0-.28-.19-.43-.29.13-.1.24-.27.38-.29A12.74,12.74,0,0,0,82.44,90c.2-.1.43-.27.61-.24a1,1,0,0,0,1.26-.59c.09-.18.67-.14,1-.16.08,0,.22.21.23.33a.45.45,0,0,1-.17.36,4.18,4.18,0,0,1-.61.27.6.6,0,0,0-.3.85.62.62,0,0,0,.81.39c.53-.13,1.07-.2,1.6-.31a1.22,1.22,0,0,0,.59-.25c.21-.25.51-.25.74-.39a3.92,3.92,0,0,0,1.06-1c.13-.18,0-.45-.32-.41a11.1,11.1,0,0,0-1.28.24c-.43.1-.84.28-1.27.36-.11,0-.34-.18-.37-.31s.18-.37.28-.37c.63,0,1.11-.53,1.8-.43.3,0,.69-.35,1-.6s.37-.46.32-.61c-.12-.35-.43-.16-.66-.06s-.72.34-1-.13a.78.78,0,0,1,.41-1.19,2.82,2.82,0,0,1,.73-.28c.45-.1.58-.39.6-.81,0-1-.18-1.12-1.13-.79l-4,1.37c-.07,0-.14.09-.21.09l-1,0a6.21,6.21,0,0,1,.52-.63,4,4,0,0,1,.61-.45c.36-.22.6-.1.82.25s.37.18.46-.1c.26-.85.26-.85,1.17-.71v0a.86.86,0,0,1,.66-.68c.35-.1.71-.23,1-.36a1,1,0,0,0,.67-1.33.48.48,0,0,0-.67-.4c-.34.12-.67.32-1,.47a20.43,20.43,0,0,1-4.9,1.32l-.22,0c-.32,0-.63,0-.64-.4s.23-.44.59-.46a5.89,5.89,0,0,0,1.83-.29,35.34,35.34,0,0,0,5.63-2.58,3.35,3.35,0,0,1,1.08-.25,1.17,1.17,0,0,0,.88-.55,1.22,1.22,0,0,1,2.21.21.74.74,0,0,1,.07.21c.12,1.27.25,2.55.36,3.83,0,.33,0,.67,0,1,0,.86.09.89.95.55.11-.05.37,0,.38,0s.08.44,0,.49a2,2,0,0,0-1,2.2,5.15,5.15,0,0,1-.53,2,.57.57,0,0,1-.88.38c-.51-.31-.79.08-1,.35a6.09,6.09,0,0,0-.67,1.1c.15.07.31.22.43.19a31.78,31.78,0,0,0,3.19-1A20.89,20.89,0,0,1,100.77,88a1,1,0,0,0,1-1.12,22.14,22.14,0,0,0,.09-3.55,18.15,18.15,0,0,1,0-2.56c0-.41,0-.82-.49-1-.31-.12-.29-.4-.21-.67a3.19,3.19,0,0,0-.06-2.07,1.22,1.22,0,0,1-.06-.65,6.56,6.56,0,0,0-.08-3,3.55,3.55,0,0,1-.12-.65c0-1.45-.13-2.88-.08-4.33,0-1.11.72-1.55,1.46-2,0,0,.29.14.28.17-.12.5.24.83.4,1.23a5,5,0,0,1,.36,1.61,43.44,43.44,0,0,0,.6,5.08,17.74,17.74,0,0,1-.16,6,15.29,15.29,0,0,0,.55,7.17c.17.54.28.93-.46,1-.12,0-.25.26-.29.42-.25,1-.48,2-.68,3a1.64,1.64,0,0,0,.12.6,3.17,3.17,0,0,0,.39-.34,1.61,1.61,0,0,1,1.42-.73.86.86,0,0,0,.88-.55,3,3,0,0,1,.52-.55h0c.15.88.26,1,1,.8a1.29,1.29,0,0,1,1.39.33,4.86,4.86,0,0,0,1.25.68c.43.21.89.37,1.33.57.88.4,1,.67.64,1.55-.17.4,0,.53.23.7.09.06.17.17.27.2,1.32.31,2.32,1.3,3.58,1.75a5.91,5.91,0,0,0,1.2.22l3,.37a1.23,1.23,0,0,1,.43.1,17,17,0,0,0,3.29,1.31,12.06,12.06,0,0,0,2.47.61,1.52,1.52,0,0,1,1.29.73,1.15,1.15,0,0,0,.68.46,19.69,19.69,0,0,0,2.63.51,17.64,17.64,0,0,1,6.64,2.44,29.75,29.75,0,0,0,5,2.62,4.86,4.86,0,0,0,1.3.27c1.44.06,2.87.08,4.32,0a14.93,14.93,0,0,1,5.18.6,16.32,16.32,0,0,1,3.61,1.42,31,31,0,0,0,4.72,2.26,16.16,16.16,0,0,0,5.2,1.15c.81,0,1.1.29,1.29,1a.71.71,0,0,1-.6,1,2.9,2.9,0,0,1-.78,0c-1.74-.14-3.49-.23-5.21-.48a7.1,7.1,0,0,1-2-.86c-1.77-.87-3.51-1.77-5.27-2.67-.62-.32-1.22-.7-1.86-1s-1.59-.63-2.38-.94a3.84,3.84,0,0,0-1.12-.39c-.38,0-.75.24-1.14.31-1,.19-2,.38-3.06.51a8.38,8.38,0,0,1-2,.07,11.72,11.72,0,0,1-4.29-1.13,9.27,9.27,0,0,0-1.05-.36,9,9,0,0,1-1.61-.74,10.4,10.4,0,0,0-4.64-1.77,22.41,22.41,0,0,1-3.34-.85,2.41,2.41,0,0,0-1-.16,2.1,2.1,0,0,1-1.58-.36c-1-.64-2.2-.62-3.3-.94a5.14,5.14,0,0,0-.55-.06c-.33-.06-.71-.28-1-.17s-.31.54-.48.81a1,1,0,0,1-1.43.42,4.42,4.42,0,0,1-1.35-.92,4,4,0,0,0-2.36-1.3A25,25,0,0,1,111,99.79c-.37-.15-.74-.35-1.1-.52a1.81,1.81,0,0,0-2.09.12c-.6.45-1.28.19-1.93,0-.34-.09-.76-.52-1-.13a2.92,2.92,0,0,0-.17,1.37c0,.17.17.33.23.5.32.83.28.91-.58,1.28a1.85,1.85,0,0,0-.41.34c.12.11.23.29.37.33.7.18.89.64.91,1.32.08,2.09.1,2.08-1.87,2.81-.8.3-1.57.68-2.38,1a23.69,23.69,0,0,1-5.76,1.24,6.19,6.19,0,0,1-1.55-.09,3.4,3.4,0,0,0-2.28.31,11.74,11.74,0,0,1-1.65.64c-2,.67-3.83,1.8-5.93,2.27a10.32,10.32,0,0,0-2.42,1.11,3.09,3.09,0,0,1-2.55.39,6.23,6.23,0,0,0-3.08.26,4.57,4.57,0,0,1-4.07-.88,3.19,3.19,0,0,0-1.11-.49c-.67-.22-1.38-.34-2-.62a4.33,4.33,0,0,0-2.19-.27,27.25,27.25,0,0,1-8.54-.49c-1-.21-2-.29-3-.5a11.92,11.92,0,0,1-5.25-2.33,8.17,8.17,0,0,0-4.1-1.59,14.62,14.62,0,0,1-2.06-.47,9.66,9.66,0,0,0-3.63-.32c-.77,0-1.55,0-2.33,0-1.45,0-2.91,0-4.34-.14-2.07-.21-4.12-.56-6.18-.85-.22,0-.5-.16-.65-.07-.77.45-1.28,0-1.8-.45a5.26,5.26,0,0,0-4.53-.91,1,1,0,0,0-.52.37,2.79,2.79,0,0,0-.46.89,8.91,8.91,0,0,1-2.91,4.27,2,2,0,0,0-.69,1.8c0,.27.19.41.45.2s.53-.51.8-.77c1.07-1,2.13-2.08,3.22-3.09a1.29,1.29,0,0,1,1.9.44,2.86,2.86,0,0,1,.47,1.8c0,.43.19.48.57.36,1.36-.43,1.76-.26,2.35,1a18.67,18.67,0,0,1,.61,1.78c.05.17.11.34.16.51a2,2,0,0,0,.46-.26c.44-.41.84-.84,1.28-1.25a1.28,1.28,0,0,1,.64-.41,18.07,18.07,0,0,1,2.44-.05c.2,0,.43.28.55.48a5.75,5.75,0,0,1,.75,4c-.07.44-.15.88-.18,1.33,0,.11.09.31.19.33a.45.45,0,0,0,.38-.13.71.71,0,0,0,.24-.37c.21-.9,1-1.38,1.53-2a2.45,2.45,0,0,1,.85-.53.89.89,0,0,1,1.32.41c.59,1.14,1.4,2.25.88,3.66,0,.07.06.18.1.27s.23-.08.27-.16a10.25,10.25,0,0,1,1.53-2.17c.63-.73,1.28-.71,1.77.12a5.11,5.11,0,0,1,.77,2.63,22.56,22.56,0,0,1-.82,5.84,1.6,1.6,0,0,0,0,.44.37.37,0,0,0,.21.06A13.24,13.24,0,0,0,42.2,124a8.45,8.45,0,0,1,1.41-2.25,2.69,2.69,0,0,1,.92-.59.59.59,0,0,1,.55.2,3.53,3.53,0,0,1,.47,3.34,4.8,4.8,0,0,0-.27,1.07c0,.29.17.4.43.24s.54-.39.83-.56c.87-.48,1.26-.37,1.69.5a2.27,2.27,0,0,1,.09,2.43,1.2,1.2,0,0,0-.17.64c0,.45-.73.77-.36,1.14s.84.19,1.25.12c1.45-.24,2.75.44,4.12.56a9.5,9.5,0,0,0,2.41-.28c.47-.08.92-.31,1.39-.4a.6.6,0,0,1,.67.91,1.41,1.41,0,0,1-.55.67,6,6,0,0,1-4.25.81,27.55,27.55,0,0,0-3.19-.91,2.31,2.31,0,0,0-1.48.19c-1.17.66-2.07.08-2-1.27a6.67,6.67,0,0,1,.45-2.16,2.62,2.62,0,0,0,0-.84c-.28.16-.66.25-.82.48-.67,1-1.28,2-1.91,3-.14.21-.31.41-.47.62a.59.59,0,0,1-.88.14c-.22-.13-.39-.35-.6-.5a.51.51,0,0,1-.09-.85c1-1.16,1.08-2.65,1.44-4a1.1,1.1,0,0,0-.05-.43,2.6,2.6,0,0,0-.33.25c-.34.33-.69.66-1,1-.14.15-.24.34-.38.5s-.32.45-.52.49c-.44.09-.5.19-.23.56,0,.06-.2.49-.38.56-.77.27-1.07.91-1.47,1.55-.75,1.2-1.43,2.43-2.08,3.68a12.24,12.24,0,0,1-1.6,2.4,19.13,19.13,0,0,1-2.1,1.92,1.29,1.29,0,0,1-.61.27.68.68,0,0,1-.48-.17c-.06,0,0-.29,0-.4.23-.42.49-.83.76-1.23.67-1,1.34-1.94,2-2.91a1.24,1.24,0,0,0,.14-.18c.37-.76.79-1.51,1.09-2.3.69-1.76,1.35-3.54,1.95-5.34.45-1.37.78-2.78,1.17-4.18a1.24,1.24,0,0,0,0-.33c0-.47,0-.94-.07-1.41-.68-.08-.66.61-.95.93A25.36,25.36,0,0,0,36,124.23a8.16,8.16,0,0,0-1.2,2.23,24.61,24.61,0,0,1-1.85,3.79,33.25,33.25,0,0,1-3.36,5,30.76,30.76,0,0,1-2,2.53A20.39,20.39,0,0,0,26,139.37c-.28.37-.72,0-1,.24s.05.67-.44.79-.61.52-1,.23a1.46,1.46,0,0,1-.27-1.45,2.89,2.89,0,0,1,1.44-1.48h0a.87.87,0,0,0,0,.22c0,.27,0,.54.08.82.31-.1.71-.11.9-.32.53-.56,1-1.21,1.45-1.82l1.14-1.48a3,3,0,0,0,.26-.36c.49-.92.95-1.84,1.46-2.74.18-.31.51-.54.68-.86a.75.75,0,0,0-.05-.69c-.25-.21-.51-.1-.72.22a11.48,11.48,0,0,1-1.13,1.47,2.18,2.18,0,0,1-.92.53c-.2.06-.46-.1-.7-.16.15-.17.31-.34.45-.52.73-.89,1.45-1.77,2.19-2.65a3.38,3.38,0,0,1,.81-.87,2,2,0,0,0,.93-1.18,4.26,4.26,0,0,1,1.09-1.64,6,6,0,0,0,1.19-1.87,23.12,23.12,0,0,0,1.59-5.54c0-.28,0-.75-.1-.82-.38-.21-.69.13-.92.42a9,9,0,0,0-.93,1.38c-.44.86-.73,1.8-1.24,2.61-.65,1-1.47,2-2.22,2.92a9.61,9.61,0,0,0-1.11,1.53,45.21,45.21,0,0,1-5.23,7.87,33.73,33.73,0,0,1-4.34,4.76c-.57.5-1.07.44-1.45-.22a1.26,1.26,0,0,1,.94-2,1.27,1.27,0,0,0,.93-.53c.57-.74,1.12-1.48,1.68-2.23l1.11-1.53c.18-.24.17-.24.11-1a.6.6,0,0,1,.15-.39c.55-.7,1.13-1.37,1.66-2.08a22.81,22.81,0,0,0,1.69-2.46c.7-1.26,1.33-2.57,1.91-3.9a22.2,22.2,0,0,0,1.68-5.41,23.12,23.12,0,0,0,.19-2.89.75.75,0,0,0-.32-.62c-.17-.06-.49.11-.67.26a23.14,23.14,0,0,0-6.14,8.36,26.79,26.79,0,0,1-2.65,4.37c-1.06,1.52-2.23,2.95-3.38,4.41a8.7,8.7,0,0,1-1.06,1.13,23.79,23.79,0,0,0-2.78,3,2.32,2.32,0,0,1-.68.57c-.21.11-.63.21-.68.12-.17-.24-.37-.64-.27-.87a6.6,6.6,0,0,1,1-1.61c.88-1.1,1.81-2.16,2.71-3.25a.88.88,0,0,0,.2-.59c-.13-.68.29-1.14.58-1.64.52-.88,1.17-1.7,1.65-2.6a10.72,10.72,0,0,1,2.9-3.61,1.25,1.25,0,0,0,.33-.45c.7-1.39,1.49-2.75,2.06-4.19a23.72,23.72,0,0,0,.91-3.67c.12-.52-.17-.73-.63-.48a3.86,3.86,0,0,0-2,1.9,35.56,35.56,0,0,1-4.31,7.53c-1.15,1.6-2.47,3.07-3.68,4.62-1.74,2.25-4,4-6,6a19.68,19.68,0,0,1-2.21,1.85c-.91.7-1.81.42-2.07-.62A1.24,1.24,0,0,1,3.12,133c1.37-1.75,2.74-3.52,4.1-5.29,1-1.35,2-2.73,3.06-4.09.14-.18.28-.35.43-.51.58-.63,1.18-1.24,1.73-1.88,1.3-1.53,2.57-3.08,3.88-4.61.63-.73,1.29-1.43,2-2.14a7.06,7.06,0,0,0,1.87-4.09,1.63,1.63,0,0,0-.14-.58c-.16.07-.37.1-.48.22-.76.76-1.52,1.53-2.23,2.33-1.25,1.42-2.46,2.87-3.68,4.32a4.74,4.74,0,0,0-.61.92,4.42,4.42,0,0,1-1,1.2,16.27,16.27,0,0,0-1.3,1.73,13.23,13.23,0,0,1-1.43,1.56c-.66.57-1.34,1.19-2.37.88-.16,0-.45.21-.64.37-1.16,1-2.31,2-3.46,3-.78.67-1.56,1.36-2.36,2-.11.09-.32.05-.49.06a1.85,1.85,0,0,1,.12-.4c1.85-3.22,4.51-5.78,7-8.49,1.51-1.64,3-3.3,4.44-5A15.76,15.76,0,0,0,13,112.18c.07-.13,0-.34,0-.52a1.43,1.43,0,0,0-.42.1c-1.12.58-2.27,1.12-3.33,1.8a5,5,0,0,0-1.47,1.5c-1.2,1.92-2.7,3.63-3.82,5.62A25.12,25.12,0,0,1,1.36,124a.87.87,0,0,1-.74.29c-.42-.1-.33-.53-.27-.85a1.32,1.32,0,0,1,.27-.59c.85-1.13,1.8-2.19,2.54-3.38,1.24-2,2.89-3.65,4-5.74a7.76,7.76,0,0,1,2.36-2.6c1.12-.8,2.24-1.59,3.38-2.35a1.34,1.34,0,0,0,.62-1.62c-.12-.52-.6-1.07-.2-1.58a5,5,0,0,1,1.24-.91,10,10,0,0,0,3.13-2.81,2.89,2.89,0,0,1,3.25-.78,17.49,17.49,0,0,0,2,.69c.56.15.61.09.63-.54a23,23,0,0,0,0-2.35,30.57,30.57,0,0,1,.43-8.1,6,6,0,0,0,.09-1.88,70.59,70.59,0,0,1-.47-10.48c0-.85-.14-1.7-.23-2.55C23.25,74.8,23,73.7,23,72.59a5,5,0,0,0-1.22-2.94c-.23-.29-.69-.4-1-.59s-.45-.43-.06-.74a2.13,2.13,0,0,1,1.7-.32c.53.07.69-.08.57-.59a2.58,2.58,0,0,0-.45-.87c-.35-.5-.54-1,0-1.48a.76.76,0,0,0,.19-.39c0-.09-.05-.19-.08-.29s-.17.05-.19.1a5.32,5.32,0,0,0-.63,1.38A1.64,1.64,0,0,1,21.13,67a7.2,7.2,0,0,0-1.07,1.25c-.44.55-.57.58-1.2.23a1.56,1.56,0,0,0-1.89.2,6.29,6.29,0,0,1-1.23.72.73.73,0,0,1-.63,0c-.5-.42-.95-.18-1.45,0a1.76,1.76,0,0,1-2.47-1.06,1,1,0,0,1,.2-1.13c.86-1.17,1.75-2.31,2.6-3.49.7-1,1.35-2,2-2.94a.76.76,0,0,0,0-1c-.27-.33-.11-.61.12-.89,1.74-2.06,2.89-4.5,4.36-6.74s2.91-4.13,4.23-6.28a34.38,34.38,0,0,0,2.6-4.4,45.36,45.36,0,0,1,3.11-5.26c.27-.44.54-.89.79-1.34.43-.78.82-1.58,1.26-2.35a14.3,14.3,0,0,1,1.86-2.75,10.12,10.12,0,0,0,1.27-2.34c.34-.67.63-1.36,1-2a1.2,1.2,0,0,0,.08-1.43c-.29-.46-.18-.68.36-.78a1.56,1.56,0,0,0,1.16-.94.89.89,0,0,0-.06-1.12c-.36-.42-.32-.79.14-1a14.17,14.17,0,0,1,2.58-.92,1.34,1.34,0,0,1,1.09.41,1.77,1.77,0,0,0,1.81.5,16.56,16.56,0,0,1,2-.08c.78,0,1.55,0,2.33,0a3.64,3.64,0,0,1,1,.16c.52.14,1,.4,1.56.49,2.2.37,4.4.77,6.62,1a28.9,28.9,0,0,0,6.57-.23,13.23,13.23,0,0,1,1.54-.07c.74,0,.84-.08.92-.79.13-1,.25-2,.32-3a2.75,2.75,0,0,0-.37-1.82,1.73,1.73,0,0,1-.28-.94,2,2,0,0,0-.46-1.21c-.49-.66-.42-.89.29-1.32a2.93,2.93,0,0,1,.39-.21c.29-.14.35-.25.14-.58-.45-.68-.35-.95.34-1.31a3.61,3.61,0,0,1,.62-.24.62.62,0,0,0,.56-.68c.07-.89.22-.93,1.14-.67a6.26,6.26,0,0,0,2.86.24,5.88,5.88,0,0,1,1.77.06.59.59,0,0,1,.52.73c0,.41-.28.61-.69.5s-.62-.26-.94-.35-.55,0-.55.35c0,.14.21.33.38.42s.53,0,.6.17a2.45,2.45,0,0,1,.16.87.46.46,0,0,1-.43.54c-.22,0-.45,0-.67.06a4.84,4.84,0,0,0-.6.22,2.25,2.25,0,0,0,.37.49c.37.28.38.55.19,1a.9.9,0,0,0,.29,1.27,1.37,1.37,0,0,1,.4.87,10.33,10.33,0,0,1,0,3.88A6.27,6.27,0,0,0,72.47,21c0,.52.22.72.74.76,1.74.15,3.48.25,5.2.48a5.12,5.12,0,0,1,1.94.78,1.07,1.07,0,0,1-.18,1.86c-.35.16-.26.3-.09.46.89.84,1.8,1.67,2.7,2.5,1.44,1.34,2.93,2.63,4.32,4s2.75,3,4.15,4.47c.74.78,1.54,1.5,2.32,2.24s1.69,1.56,2.49,2.38c.26.27.76.62.13,1.08-.3.22-.07.49.1.67.38.41.83.76,1.17,1.19,1.33,1.66,3,2.94,4.49,4.48s3.36,3,4.7,4.76c.33.44.6.92.91,1.39.47.71,1,1.42,1.4,2.15.09.13.06.34.08.51-.16,0-.36,0-.47-.15-.64-.61-1.27-1.25-1.89-1.88-.84-.84-1.65-1.71-2.52-2.52a15.53,15.53,0,0,0-3.07-2.39,6.31,6.31,0,0,1-1.45-1.38,35,35,0,0,1-3.24-3.2,3.78,3.78,0,0,0-.65-.61c-.6-.49-1.21-1-1.84-1.43a7.32,7.32,0,0,0-1.07-.57ZM43.29,49.84h0Zm9.4-18.57h0l.05,0a.78.78,0,0,0,0,.22,1.84,1.84,0,0,0,.2.19,1.14,1.14,0,0,0-.09-.26A.7.7,0,0,0,52.69,31.27Zm49.59,30.2-1.1.22,0,.09,1.05-.32ZM37.68,31.06c.07,0,.16,0,.2-.08a16.62,16.62,0,0,0,2-3.72c0-.06-.08-.18-.12-.27s-.23.07-.27.14c-.4.8-.81,1.6-1.18,2.41-.22.5-.39,1-.59,1.53l0,0ZM26.49,53.62a3.74,3.74,0,0,0,.77-.77c.58-1.12,1.26-2.17,1.92-3.24,1-1.67,2-3.4,3-5.09.47-.78,1.07-1.5,1.54-2.28.78-1.3,1.5-2.64,2.26-3.94a22.6,22.6,0,0,0,1.79-4.53.74.74,0,0,0,0-.32c-.12,0-.31,0-.36.12a14.24,14.24,0,0,1-.77,1.32,16.76,16.76,0,0,0-1.92,3.37,9.16,9.16,0,0,1-1.22,2.08,19,19,0,0,0-2.67,4.82c-.72,1.54-1.69,2.93-2.34,4.49-.5,1.19-1.18,2.3-1.77,3.45a3.05,3.05,0,0,0-.14.54,3,3,0,0,0-.34.37c0,.05,0,.17.07.26s.13-.09.15-.15A4,4,0,0,0,26.49,53.62ZM88.54,65.45a11,11,0,0,0,1.06-.35c.51-.22.58-.49.27-1a1.57,1.57,0,0,0-.3-.33,41.88,41.88,0,0,1-4.78-5.69c-.46-.58-.72-1.32-1.21-1.85s-1.06-1.46-1.75-2.08a4,4,0,0,1-1.12-1.75c-.26-.89-1-1.35-1.49-2a11.11,11.11,0,0,0-2-1.57,4,4,0,0,1-.64-.72,9.39,9.39,0,0,0-2.18-2.43,3.38,3.38,0,0,1-1.6-2.15c0-.17-.16-.45-.24-.45-.69,0-.78-.47-.94-1a1.37,1.37,0,0,0-.64-.59,8.07,8.07,0,0,1-2.44-2.25c-.27-.33-.71-.58-.85-1A5.4,5.4,0,0,0,66,36.18c-.44-.39-1-.69-.87-1.44,0-.08-.08-.2-.14-.28-.68-.78-1.37-1.55-2-2.34a13.33,13.33,0,0,0-1.1-1.36,7.24,7.24,0,0,1-1.07-1.34A17,17,0,0,0,58.45,27s-.23,0-.29,0a.32.32,0,0,0,0,.3c.29.43.6.84.9,1.27l1.55,2.17c.14.21.28.43.44.64.69.91,1.4,1.81,2.06,2.75s1.44,2.17,2.22,3.21a17.67,17.67,0,0,0,2.41,3.15,22.33,22.33,0,0,1,2.46,3.13q2.81,3.54,5.63,7c.64.81,1.33,1.58,2,2.37s1.33,1.67,2,2.51c.84,1.07,2,1.81,2.77,3a45.8,45.8,0,0,0,3.3,4.33,28.09,28.09,0,0,0,2,2.13A3.24,3.24,0,0,0,88.54,65.45ZM72.21,32.2c-.09.12-.24.23-.24.34s.13.52.08.74a1.3,1.3,0,0,0,.74,1.55,3.13,3.13,0,0,1,1,1.12,15.36,15.36,0,0,0,1.29,1.51c.25.27.55.5.81.76A32.48,32.48,0,0,1,79,41.86c.71,1,1.41,1.91,2.08,2.88.53.75,1,1.54,1.51,2.29.33.47.73.89,1.09,1.34,1.18,1.47,3.06,2.3,3.84,4.15a.14.14,0,0,0,.08.07,3.24,3.24,0,0,1,1.16,1.3,3.66,3.66,0,0,0,.86,1A25,25,0,0,1,93,58.48c1.07,1.16,1.84,2.61,3.39,3.28.11,0,.18.22.25.35.24.47.55.54,1,.25a4.12,4.12,0,0,1,.72-.27c.08,0,.14-.14.21-.21a1.32,1.32,0,0,0-.25-.16c-.1,0-.22,0-.33,0l-.89-.2c.24-.12.48-.26.73-.36s.53-.39.24-.66-.57-1.09-1.28-1.15c-1-.9-2.12-1.64-2.42-3.07a.45.45,0,0,0-.26-.28,3.34,3.34,0,0,1-1.54-1.2c-1-1.29-1.9-2.61-2.74-4-.55-.91-1.57-1.44-1.87-2.52,0,0-.06,0-.08-.07-.61-.54-1.54-.79-1.55-1.84,0-.05-.24-.09-.37-.13s-.41-.07-.49-.19a4.29,4.29,0,0,0-1.55-1.67c-.28-1-1.19-1.47-1.92-2.08A13.48,13.48,0,0,1,80,40.65a6.34,6.34,0,0,1-1.6-2.25c-.07-.25-.51-.39-.76-.6a3.56,3.56,0,0,1-.9-.92,2.1,2.1,0,0,0-1-1c-.52-.28-1.14-.64-1.13-1.28,0-1.14-.64-1.59-1.57-1.87a1.5,1.5,0,0,1-.41-.18C72.56,32.44,72.41,32.33,72.21,32.2ZM95.6,107.14a12.24,12.24,0,0,0,3.51-.77c1.46-.56,2.93-1.08,4.39-1.62a1.33,1.33,0,0,0,.54-.35c.1-.12.06-.34.08-.51a1.13,1.13,0,0,0-.4,0c-1.18.3-2.36.63-3.54.93-1.47.38-3,.7-4.42,1.12a4.21,4.21,0,0,1-2.09-.1c-.43-.1-.51-.42-.35-.78s.37-.47.56,0a1.15,1.15,0,0,0,.34-.12c.24-.21.46-.47.72-.66.07,0,.25,0,.38.06a1.58,1.58,0,0,1-.09.31A3.61,3.61,0,0,1,95,105a2.17,2.17,0,0,0,.43,0c.8-.16,1.61-.3,2.4-.52a21.66,21.66,0,0,1,4.2-1,1.07,1.07,0,0,0,1.06-.69,1.34,1.34,0,0,0-.38-1.43.65.65,0,0,0-.8-.15,19,19,0,0,1-1.78.65c-1.73.55-3.47,1.08-5.19,1.65-.52.18-1,.55-1.49.73-1.11.38-2.25.69-3.38,1a1.68,1.68,0,0,1-.74,0c-.77-.12-.73-.12-.52-1a1.64,1.64,0,0,0,0-1.14.94.94,0,0,0-1.21-.21c-.6.26-1.23.41-1.83.74s-1.22.85-2,.24c-.09-.07-.52.08-.52.14,0,.44-.25.57-.65.57s-.79.16-1.06,0a.66.66,0,0,0-1,.25.94.94,0,0,1-.43.33c-1,.44-2,.86-3.08,1.27a1.39,1.39,0,0,0-1.07,1.46c0,.7.07.78.73.62.43-.11.85-.27,1.28-.39s1.08-.54,1.7-.21A.46.46,0,0,0,80,108c.33-.31.6-.68,1.14-.36.08,0,.31-.13.46-.23a5,5,0,0,1,.73-.5c1.66-.65,3.33-1.27,5-1.89a2.07,2.07,0,0,1,.61,0,2.76,2.76,0,0,1-.2.71.92.92,0,0,1-.44.32c-1,.39-1.91.77-2.87,1.14-.52.2-1,.36-1.56.57a13.93,13.93,0,0,1-2.31,1,6.19,6.19,0,0,0-2.35.73c-.36.25-.93.18-1.4.3s-.83.46-.8.91.42.58.77.68a8.51,8.51,0,0,0,3.55.16,4.62,4.62,0,0,0,1.51-.86c.1-.07.08-.31.12-.47-.14,0-.35-.09-.42,0-.44.44-1.06.21-1.54.45a.5.5,0,0,1-.67-.19c-.21-.21-.2-.4.11-.48a3.87,3.87,0,0,0,.85-.13,8.7,8.7,0,0,0,1.49-.83,3.1,3.1,0,0,1,1.77-.56c.15,0,.29-.21.44-.3a8.18,8.18,0,0,1,4.38-1.4c.26,0,.89.6.77.74s-.43.19-.66.27a.41.41,0,0,1-.22,0c-1.33-.25-2.34.51-3.4,1.09-.07,0-.1.16-.14.24a1.63,1.63,0,0,0,.31,0,12.65,12.65,0,0,0,4.57-1.36c.32-.18.53-.2,0-.51-.64-.41-.58-.82.11-1.11a5.69,5.69,0,0,1,1.29-.33,6.94,6.94,0,0,0,1.31-.12c.53-.2.76,0,.69.44s.19.68.57.76C94.29,106.94,95,107,95.6,107.14ZM72,39a2,2,0,0,0,.64,1.48,18.91,18.91,0,0,1,3.72,4.68,1,1,0,0,0,.14.17c.65.76,1.28,1.53,1.95,2.28,1.54,1.7,2.76,3.65,4.35,5.32a42,42,0,0,1,3,3.83,16.6,16.6,0,0,0,2.48,2.68,20.67,20.67,0,0,1,4,4.2.87.87,0,0,0,.66.3,5.3,5.3,0,0,0,1.29-.32c.32-.11.35-.35.14-.62a16,16,0,0,1-1.05-1.29,4.32,4.32,0,0,0-1.82-1.87.89.89,0,0,1-.3-.31l-2-2.91c-.12-.18-.22-.42-.4-.51a3.87,3.87,0,0,1-1.39-1.56,11.91,11.91,0,0,0-.85-1c-.33-.39-.66-.78-1-1.18-.14-.17-.22-.38-.37-.53L81.9,48.55a1.82,1.82,0,0,1-.27-.35c-.25-.41-.48-.83-.74-1.22a15.92,15.92,0,0,1-1-1.45c-.31-.6-.38-1.35-1.19-1.56,0,0-.08-.11-.13-.17-.47-.58-.9-1.19-1.42-1.72s-.85-1.6-1.58-2.18a2.57,2.57,0,0,1-1.07-1.5c-.06-.29-.32-.82-.72-.14a.51.51,0,0,1-.47,0c-.26-.16-.52-.37-.78-.07A4.24,4.24,0,0,0,72,39Zm8.43,21.19c0-.07,0-.16-.08-.2a4.46,4.46,0,0,1-1.3-1.89,7.2,7.2,0,0,0-1.15-1.63,36.85,36.85,0,0,1-2.48-3.09,13.41,13.41,0,0,0-3.68-4.11,1.81,1.81,0,0,1-.45-.62c-.64-1-1.28-2.07-1.9-3.12a.84.84,0,0,0-.87-.54,1,1,0,0,1-.52-.16,6.27,6.27,0,0,1-2.24-2.55c-.27-.51-.27-1.14-1-1.36-.18-.05-.25-.43-.37-.66s-.21-.56-.39-.63c-.83-.3-1-1.09-1.49-1.71s-.68-1-1.07-1.42a4.22,4.22,0,0,1-1.33-2.14c0-.18-.27-.32-.41-.49a34.85,34.85,0,0,1-3.2-4.13c-.63-1.11-1.71-1.6-2.43-2.51,0-.06-.31,0-.39,0s-.06.27,0,.38a2.53,2.53,0,0,0,.37.55c.69.92,1.42,1.82,2.08,2.76,1.29,1.82,2.55,3.67,3.83,5.5.3.42.68.79,1,1.21,1.14,1.55,2.23,3.15,3.41,4.67a37.37,37.37,0,0,1,2.79,4.28c.49.85.24,1.18-.74,1.11-.14,0-.27-.12-.41-.16s-.27,0-.4,0c0,.17-.09.41,0,.51a8.92,8.92,0,0,0,1,1.06c.38.35.84.62.78,1.25,0,.1.22.27.36.31a3.08,3.08,0,0,1,1.85,1.47,8.43,8.43,0,0,0,2,1.91,1.15,1.15,0,0,0,.28.08c0-.11.08-.23,0-.32a3.55,3.55,0,0,1-.37-.76,2.6,2.6,0,0,1,.14-.81,2.18,2.18,0,0,1,.54.22c.33.24.62.52.94.77a15.4,15.4,0,0,1,3.69,3.29c.33.49.56,1,.86,1.51s1,.77,1.45,1.17c.14.11.18.33.3.46a8,8,0,0,0,.75.67s.13,0,.19,0S80.46,60.22,80.47,60.19Zm-3,7.18c.22-.05.52-.11.8-.2s.44-.37.2-.69-.44-.6-.69-.87c-.67-.7-1.37-1.37-2-2.07S74.16,62,73.43,61.12c-.52-.62-1-1.29-1.44-2a11.4,11.4,0,0,1-1.23-1.95,12.78,12.78,0,0,0-2.63-3.67,23.46,23.46,0,0,1-1.82-2c-1.19-1.65-2.29-3.36-3.49-5a10.19,10.19,0,0,0-3-3.15c-.16-.09-.36-.22-.39-.37-.13-.55-.61-.73-1-1a8.57,8.57,0,0,1-2.17-2.48,3.47,3.47,0,0,0-.93-1.06,8.1,8.1,0,0,1-1.47-1.51c-.78-1-1.51-2-2.27-3a2.87,2.87,0,0,0-.56-.54c0-.05-.19,0-.28,0a.26.26,0,0,0,0,.2,10.6,10.6,0,0,0,.61.93c.63.82,1.3,1.61,1.92,2.44.34.44.59,1,.94,1.38.86,1.07,1.76,2.1,2.62,3.17,1.44,1.79,2.86,3.6,4.3,5.4.78,1,1.61,2,2.36,3,1.08,1.45,2.13,2.93,3.18,4.41l3.26,4.65a7,7,0,0,0,.83,1.17c.31.3.82.38,1.11.68s.1.86.41,1.31a27.22,27.22,0,0,1,2.08,3.53C75,66.93,76.13,67.19,77.44,67.37ZM50.33,105.51l-.55.12a3,3,0,0,0,.31.52,2.07,2.07,0,0,0,.44.34,15.13,15.13,0,0,0,6.27,2.76c.36.06.83.49,1.07,0,.1-.19-.35-.65-.56-1a3.86,3.86,0,0,0-.3-.38,1.49,1.49,0,0,1,.49-.13c.37,0,.73.13,1.09.2a6,6,0,0,0,1.32.21,31.3,31.3,0,0,1,4.73.55,4,4,0,0,1,1.09.19A29.34,29.34,0,0,0,72,110.29a1.41,1.41,0,0,0,1.42-.56.77.77,0,0,0,.15-.69c-.06-.14-.44-.23-.65-.19a2.64,2.64,0,0,1-2.28-.62,1.73,1.73,0,0,0-1.23-.41,3.87,3.87,0,0,1-1.53-.08,8.13,8.13,0,0,0-3.27-.41c-1.51-.1-3.06.22-4.54-.27-1.18-.39-2.43-.49-3.63-.82s-2.56-.3-3.8-.62C51.85,105.42,51.07,105.91,50.33,105.51ZM37,57.34a8.89,8.89,0,0,1-.89.07,2.52,2.52,0,0,1-.77-.07c-.28-.07-.64-.2-.54-.57.05-.18.36-.35.57-.4.47-.1,1-.11,1.44-.17,1.47-.17,1.57-.29,1.43-1.8a3.53,3.53,0,0,0-.11-.65,1.48,1.48,0,0,0-1.4-1.19,4.73,4.73,0,0,1-1.26-.35c-.39-.16-.58,0-.66.34a11.58,11.58,0,0,0-.23,1.31c-.08.52-.12,1-.2,1.55,0,.11-.14.22-.21.32-.1-.09-.26-.17-.29-.28a5.21,5.21,0,0,1,.63-3.52c.06-.13.33-.16.46-.28a1.62,1.62,0,0,0,.21-.39c-.2,0-.48-.19-.6-.11a1.4,1.4,0,0,0-.42.62c-.19.44-.33.91-.53,1.34a32.5,32.5,0,0,1-2.35,5c-.1.16-.13.37.15.41a6.83,6.83,0,0,0,1.75.27c2.19-.25,4.37.29,6.55-.06a1.13,1.13,0,0,1,.45,0c1.09.36,2.11-.19,3.17-.27.08,0,.16-.11.24-.18-.11-.07-.21-.18-.32-.2-.92-.13-1.85-.17-2.75-.37A10.77,10.77,0,0,0,37,57.34ZM43.34,33l0-.14c-.27.07-.6.06-.78.22a3.24,3.24,0,0,0-.65.9c-.2.33-.08.55.32.64l2.35.48.19.09c-.06.07-.12.2-.2.21-.25,0-.51,0-.76,0-.92.1-1.83.19-2.74.32-.15,0-.3.2-.41.34-.28.37-.21.65.25.7a15.59,15.59,0,0,0,2.73.18,8.24,8.24,0,0,1,2.85.27,5.39,5.39,0,0,0,2.4-.05c.35,0,.38-.24.22-.56a12.1,12.1,0,0,0-3.3-3.57,1.56,1.56,0,0,0-1.47-.29ZM35.93,42c-.08-.17-.13-.3-.19-.43-.14.1-.35.16-.41.29-.57,1.21-1.73,2.05-2.1,3.39,0,.2-.26.35-.38.54-.47.71-1,1.41-1.39,2.14s-.74,1.36-1.11,2c-.1.2-.29.37-.34.57-.27,1.32-1.25,2.37-1.42,3.73a2.37,2.37,0,0,1-.35.69l-.62,1.17a18.53,18.53,0,0,1-1.57,2.79c-.44.55-.4,1.26-.89,1.75-.05,0,.05.26.08.4.12-.06.29-.09.35-.19.73-1.17,1.46-2.34,2.18-3.51l1.8-3a21.69,21.69,0,0,0,2.1-3.54c.45-1.24,1.32-2.21,1.76-3.45a42.76,42.76,0,0,1,2.06-4.19A9.14,9.14,0,0,0,35.93,42Zm65.88,51.35c-.09-1.08-.19-2.15-.24-3.22,0-.87-.2-1-1-.69s-1.84.79-2.76,1.17a1.77,1.77,0,0,0-1.22,1.9,11.47,11.47,0,0,1-.09,1.76c-.14,1.09,0,1.23,1.09.9.1,0,.2-.1.3-.13,1-.26,1.92-.53,2.89-.77C101.36,94.1,101.86,93.7,101.81,93.32Zm11.53,4.46-.17.06c.11.13.19.32.33.39.4.18.84.3,1.25.47,1.46.63,2.88,1.36,4.38,1.9,1.77.64,3.59,1.12,5.39,1.69a1.09,1.09,0,0,0,1.12-.27c.25-.22.26-.47-.09-.6a18.1,18.1,0,0,0-3-1,5.48,5.48,0,0,1-2.19-1,5.55,5.55,0,0,0-2.66-1.3C116.29,98.06,114.93,97.92,113.34,97.78ZM85.91,101.2c-.1,0-.34.14-.58.22s-.55.19-.83.26c-1.29.29-2.59.55-3.87.87a8.57,8.57,0,0,0-1.24.48c-.34.13-.68.28-1,.42-.67.3-1.36.55-2,.91a1,1,0,0,0-.3.75c0,.46.23.59.65.41a3.82,3.82,0,0,1,1-.48c1-.11,1.81-.92,2.87-.67a8.4,8.4,0,0,1,3.09-.67,1.8,1.8,0,0,0,.59-.29c.45-.24.91-.48,1.34-.75a3.4,3.4,0,0,0,.92-.75C86.8,101.54,86.53,101.18,85.91,101.2Zm5.28-7.64h.08c0-.25-.06-.69-.16-.72a1,1,0,0,0-1.06.77,3.72,3.72,0,0,0,.08.65,2,2,0,0,1,0,.65c0,.15-.21.27-.33.4-.11-.12-.28-.22-.32-.36-.22-.71-.39-1.42-.61-2.13,0-.17-.23-.43-.38-.44-.64-.06-1.43.59-1.34,1.17a11.19,11.19,0,0,1,0,2.65c-.06.79.3,1.07,1.1.92s1.67-.34,2.5-.52.8-.18.73-.93S91.29,94.26,91.19,93.56ZM67.15,32a2.37,2.37,0,0,0-1.07-2,3.21,3.21,0,0,1-1.16-1.56,1.84,1.84,0,0,0-.36-.53c-.44-.59-.89-1.18-1.35-1.75-.13-.16-.31-.4-.47-.4-.56,0-.85-.35-1.22-.65a3.13,3.13,0,0,0-.88-.43c-.08,0-.2,0-.31,0a1.13,1.13,0,0,0,.12.38c.81,1.05,1.72,2,2.42,3.15a34.37,34.37,0,0,0,3.31,4.44,4.81,4.81,0,0,0,.67.52l.28-.79A2.12,2.12,0,0,0,67.15,32Zm5.27,22.44c-.09.14-.28.31-.24.39a2.37,2.37,0,0,0,.44.61,36.5,36.5,0,0,1,3.76,4.66c.78,1.11,1.64,2.17,2.5,3.22.61.74,1.28,1.43,1.92,2.14a1.52,1.52,0,0,0,.5.42.56.56,0,0,0,.5-.09.51.51,0,0,0,0-.48,5.05,5.05,0,0,0-.75-1c-.56-.54-1.21-1-1.72-1.57-1-1.11-1.93-2.25-2.83-3.43-.59-.8-1.05-1.69-1.59-2.53a4.08,4.08,0,0,0-.68-.87c-.47-.47-1-.89-1.49-1.33A1.69,1.69,0,0,0,72.42,54.48Zm22.8,38.4h.12a5,5,0,0,0-.23-.86c-.06-.12-.29-.29-.39-.26a19.28,19.28,0,0,0-2.12.66c-.17.07-.29.41-.31.63s.19.45.32.46c.47,0,.52.37.58.69s.07.88.12,1.31a.8.8,0,0,0,.18.5c.3.26,1.59-.22,1.62-.6C95.18,94.57,95.19,93.72,95.22,92.88ZM44.39,55.46l.11,0a9.9,9.9,0,0,1-.37-1.59c0-.54.25-1.12-.38-1.52-.1-.07,0-.42,0-.65a3.2,3.2,0,0,0,0-.59c-.44-.14-.21.35-.41.47s-.11.11-.17.13c-.71.21-.57.73-.52,1.26a12,12,0,0,1,.06,2,2.74,2.74,0,0,1-.4,1.13c-.37.64-.4.62.28.78l.54.12c1,.2,1.14.09,1.22-1C44.4,55.83,44.39,55.64,44.39,55.46ZM43.84,31.9s.23-.11.44-.23a3.24,3.24,0,0,0-.33-.54c-.45-.49-.93-.95-1.37-1.44-.25-.27-.43-.61-.67-.89-.55-.65-.81-.64-1.29,0-.17.24-.33.49-.5.74s-.27.53.17.67a1.14,1.14,0,0,1,.8.84.63.63,0,0,0,.36.37C42.17,31.6,42.89,31.72,43.84,31.9ZM55.7,52.08a5.49,5.49,0,0,0-.83.1.73.73,0,0,0-.62.69c0,.67-.07,1.33,0,2a1,1,0,0,0,.34.72,1.07,1.07,0,0,0,1.63-1c.08-.76-.16-1.57.4-2.25a.39.39,0,0,0-.17-.28A4,4,0,0,0,55.7,52.08ZM41,32.82c-.09-.11-.15-.27-.22-.27s-.4,0-.46.14a16.9,16.9,0,0,0-1.84,3A34.44,34.44,0,0,1,36.53,40c-.09.16,0,.4,0,.6a3.5,3.5,0,0,0,.54-.29,1.21,1.21,0,0,0,.23-.38q1.74-3.16,3.46-6.34A6.3,6.3,0,0,0,41,32.82Zm20,23a2.26,2.26,0,0,0,.45,0,4,4,0,0,0,.49-.17,1.26,1.26,0,0,0-.21-.47c-.54-.6-1.1-1.2-1.69-1.76a5.83,5.83,0,0,0-.86-.57A7.64,7.64,0,0,0,59,53.92C59.07,55.61,59.33,55.85,61,55.85Zm4.58-32a.68.68,0,0,1,0-.14c.26,0,.52,0,.78,0s.56-.15.57-.54-.22-.83-.6-.77c-1.06.17-2.11.41-3.17.63-.06,0-.15.11-.14.14s.09.22.16.23C64,23.6,64.74,23.74,65.54,23.89Zm1.71,3.93c-.06-.69,0-1.33-.81-1.48-.14,0-.22-.28-.36-.39a1.5,1.5,0,0,0-.47-.24.36.36,0,0,0-.3.09.3.3,0,0,0,0,.29c.46.61.93,1.22,1.41,1.81a.47.47,0,0,0,.38.16C67.18,28.05,67.23,27.85,67.25,27.82Zm35,69.58s0-.23-.08-.28-.26,0-.4.06c-.76.23-.66,1.08-1.1,1.54.1.09.19.24.29.25C101.77,99,102.13,98.58,102.28,97.4ZM84.64,93.81c0,.28,0,.37,0,.42a6.34,6.34,0,0,0,.37.62c.2-.14.4-.28.59-.43a.34.34,0,0,0,.09-.2c0-.35.18-.74-.21-1-.13-.09-.43-.14-.49-.07A4.26,4.26,0,0,0,84.64,93.81Zm22.25,1.9a3.34,3.34,0,0,0,.5,0c.2,0,.39-.12.59-.19-.14-.19-.25-.44-.44-.55a1.16,1.16,0,0,0-.81-.18c-.27.08-.69.37-.68.55,0,.37.45.4.79.41Zm-41.55-49a2.06,2.06,0,0,0-.26-.45c-.18-.18-.41-.32-.59-.5-.42-.41-.82-.85-1.25-1.26-.05-.06-.18,0-.28-.06s0,.22.07.29c.42.56.85,1.11,1.3,1.65a2,2,0,0,0,.62.45C65,46.9,65.17,46.79,65.34,46.74ZM83.1,94.2a8.88,8.88,0,0,0-.06-1c0-.12-.18-.31-.25-.3s-.39.15-.4.25a2.8,2.8,0,0,0,0,1c.07.28,0,.74.44.73C83,94.86,83.06,94.33,83.1,94.2Zm2.48,2.37c-.16-.37,0-.87-.49-.93-.29,0-.44.35-.4.88,0,.32.18.5.48.42S85.46,96.69,85.58,96.57ZM56.32,24.83c-.09.16-.19.28-.17.3a9.3,9.3,0,0,0,.7.83.33.33,0,0,0,.29,0,.31.31,0,0,0,0-.29C56.93,25.41,56.65,25.15,56.32,24.83ZM24.1,58.38c.21-.26.45-.54.66-.83,0-.07,0-.2,0-.31s-.22,0-.27.08c-.2.27-.37.55-.55.83,0,0,0,.13,0,.19S24,58.36,24.1,58.38Zm58.72,51.39.56-.32a1.6,1.6,0,0,0-.56-.21c-.11,0-.22.2-.34.3ZM73.21,31.29l-.37.44c.1.07.21.21.31.2a.41.41,0,0,0,.28-.25C73.45,31.6,73.32,31.48,73.21,31.29ZM10.35,126.38l.17-.34c-.06,0-.16-.09-.17-.08a3.46,3.46,0,0,0-.22.31Zm12-64.77-.11-.22a2.83,2.83,0,0,0-.32.37s.07.13.11.2ZM67.19,106.8,67,107s.06.07.08.07l.26-.1ZM85.54,66c0-.07,0-.15-.06-.18s-.12,0-.18,0l.07.24Zm1.13-14-.06-.08a1.42,1.42,0,0,0-.13.12s0,.05,0,.08ZM69.28,39.3l.12-.09s-.05-.06-.06-.05a.57.57,0,0,0-.13.08Zm-31.8,82v.09l.08,0Zm-25.21,2.87.05-.08s-.06,0-.07,0,0,0-.05.07ZM49.66,31.68l0,.06h.06ZM108.81,96l-.09,0,.09,0ZM40.94,25l0,.06H41ZM25.72,55.23l0-.07H25.7ZM57.6,26.45v.06l.06,0ZM62.17,52l0,.06.06,0Z"/><path class="cls-1" d="M58.26,86.72a.61.61,0,0,0-.2.09c-.21.21-.41.43-.62.65-.2-.2-.4-.4-.61-.58a.47.47,0,0,0-.31-.06c-.18,0-.37.13-.54.1-1-.16-2,.35-2.93-.16a1.06,1.06,0,0,1-1.29-.33c-.12-.13-.6-.09-.8,0a2,2,0,0,1-1.5.21c-.43-.06-.88,0-1.31-.1a1.12,1.12,0,0,1-.65-.25,2.54,2.54,0,0,1-.33-.79,3.06,3.06,0,0,1,.71-.17c.77,0,1.55,0,2.33,0,.33,0,.55,0,.67-.39a1.07,1.07,0,0,1,.52-.51c.41-.22.38-.38.05-.63a.49.49,0,0,1-.12-.4c.44-.32.39-.78.39-1.22,0-1.15,0-2.3,0-3.45,0-.78,0-.8-.78-.9s-1.62-.15-2.43-.24c-.51,0-1-.13-1.54-.22-1.27-.22-2.55-.46-3.83-.65a.66.66,0,0,0-.57.2,15.34,15.34,0,0,0-.69,1.48,10.47,10.47,0,0,1,1.2.5c1,.53,2.11.1,3.16.16a5,5,0,0,1,2,.85.25.25,0,0,1-.11.47,3.22,3.22,0,0,1-1.83-.29c-.16-.09-.34-.24-.49-.22-.39.06-.78.25-1.17.3s-.56-.42-1-.27a2.52,2.52,0,0,1-1.2-.11,1.17,1.17,0,0,1-1.09-1.18c-.05-.72-.62-1.33-.52-2.13,0-.29-1.14-1-1.42-.89a.57.57,0,0,0-.29.3,6,6,0,0,0-.32,3.6c.13.5.17.85-.45,1-.17,0-.32.39-.35.62-.07.51,0,1-.09,1.56-.06.78-.06.84.67,1a5.27,5.27,0,0,0,1.43.08.89.89,0,0,0,.58-1.54c-.34-.44-.35-.48.23-.59s.68-.58.8-1.05c0-.11.19-.19.3-.28a2.36,2.36,0,0,1,.12.28,3.63,3.63,0,0,0,.1.42c.27.73.29.7,1,.59a12.93,12.93,0,0,1,1.65-.08c.09,0,.19.09.29.14a.76.76,0,0,1-.16.26c-.16.15-.39.24-.51.42-.25.34-.41.77-.89.19-.15-.17-1.24.33-1.43.6a1.43,1.43,0,0,0-.1,1.47.7.7,0,0,0,.45.27c.46.09.93.14,1.4.21.07,0,.2,0,.21,0,.3.88.76.22,1.18.16a5.39,5.39,0,0,1,1.06,0c.2,0,.41,0,.27.31s.07.53-.32.45c-.76-.15-1.54.25-2.3-.13a1.29,1.29,0,0,0-.75,0c-.61.14-.59.14-.9-.54a.4.4,0,0,0-.39-.09,2.67,2.67,0,0,1-3.35.39,6.21,6.21,0,0,0-2.62-.38c-.78-.06-1.56,0-2.34,0a3.57,3.57,0,0,1-1.29-.29,9.39,9.39,0,0,0-3-.83c-.73-.08-1-.4-1-.94s.21-.68.67-.64c1.06.12,2.13.26,3.2.37a.48.48,0,0,0,.4-.22,3.7,3.7,0,0,0,.17-1.09c0-.89-.09-1.79-.14-2.68,0-.37,0-.73-.54-.81-.15,0-.32-.38-.35-.6a1.92,1.92,0,0,1,.06-.89c.27-.78,0-1-.92-1s-1.06.08-1.14,1.08c0,.33,0,.66,0,1A3.09,3.09,0,0,1,29,80c-.32.39-.57.39-.92,0a2,2,0,0,1-.59-1.84,5.16,5.16,0,0,0-.2-3c-.23-.54.08-.93.47-1.26a3.86,3.86,0,0,1,2.54-.62c.4,0,.81,0,1.22,0,.09,0,.18-.09.28-.14-.1-.06-.18-.17-.28-.18l-3.19-.4c-.44,0-.88-.11-1.32-.19-.11,0-.28-.19-.27-.27a.56.56,0,0,1,.26-.31.8.8,0,0,1,.43-.09c1.62.13,3.25.27,4.87.43a4.22,4.22,0,0,1,.87.19c.91.29,1.8.65,2.72.87a6.67,6.67,0,0,0,1.54-.05,21.9,21.9,0,0,1,2.43,0c1.23.11,2.46.31,3.69.48a1.18,1.18,0,0,1,.43.07c.72.48,1.58.2,2.35.47a1.16,1.16,0,0,0,1.34-.13c.1-.09.65.09.82.29.42.49.83.32,1.28.11.06,0,.1-.14.15-.15.28,0,.56,0,.84,0,0,.25-.05.49-.08.73a1.48,1.48,0,0,1-1.82.37,1.14,1.14,0,0,0-.52-.15c-1.22.13-2.29-.49-3.44-.64-.8-.1-1.6-.16-2.4-.2-.15,0-.4.1-.43.21a.55.55,0,0,0,.17.48,4.51,4.51,0,0,0,1.42.78c2,.41,4.06.73,6.09,1.06.6.1.74-.06.95-.63a2.13,2.13,0,0,0,0-1.3c1.4-.79,2.93-.35,4.4-.4a24.77,24.77,0,0,0,3,.15c.92-.16,1.92.1,2.78-.49.21-.14.56-.08.85-.11l0,0c.19,1,.19,1,1,.94s1.54.31,2.31,0a.55.55,0,0,1,.43.06,4.11,4.11,0,0,0,2.36.43,7.61,7.61,0,0,1,1.63.33c.31.09.29.36,0,.57l-1,.24a2.57,2.57,0,0,1-1.48,0c-.18,0-.49.2-.6.39a2,2,0,0,0,.54,2.09c.55.27.21.44,0,.62s-.44.13-.44.18a4.09,4.09,0,0,0,.18,2c.22.38.46.51.77.17a.8.8,0,0,1,.91-.23c.12,0,.3.18.3.27s-.1.41-.21.45a3.79,3.79,0,0,1-1.18.26,1,1,0,0,0-1.06.6c-.27.52-.66.52-.88,0A3.21,3.21,0,0,1,64.91,82a27.55,27.55,0,0,0-.24-4.89c0-.3-.14-.46-.5-.39s-.81,0-1.22.07-.65.18-.62.69c.09,1.78.19,3.56.28,5.33a2,2,0,0,0,1.92,1.6c1,0,2.06.15,3.09.26a.61.61,0,0,1,.37.34c0,.08-.08.28-.18.35s-.48.39-.67.35a2.28,2.28,0,0,0-1.72.06s-.32-.15-.31-.22c0-.63-.33-.51-.72-.43s-.64.17-.85,0c-.62-.37-1-.12-1.45.32s-.66.65-1.25.36-1.09.31-1.55-.23a.67.67,0,0,0-.35.19c-.25.28-.46.58-.69.88Zm-1.64-5.51h.06c-.07-1.11-.14-2.22-.2-3.33,0-.39-.2-.63-.62-.61l-.56,0c-.46,0-1.12-.34-.87.64,0,.09-.12.28-.23.35-.43.25-.41.64-.44,1.06-.06,1.18-.16,2.36-.26,3.54,0,.52-.13,1-.16,1.55s.17.67.58.66a20.41,20.41,0,0,0,2.2-.19c.37,0,.51-.37.51-.75C56.61,83.14,56.62,82.17,56.62,81.21ZM39.5,74.28l-.21-.14c0,.06-.11.14-.09.16a.69.69,0,0,0,.19.19Z"/><path class="cls-1" d="M52,66.62c.38-.1.84.16,1.14-.38.1-.18.62-.12.94-.16,1.58-.22,3.15-.48,4.74-.64a12.24,12.24,0,0,1,2.09.07c.52,0,1,.11,1.55.17s.91.47.67,1.07a2.25,2.25,0,0,1-3.43.88A1.94,1.94,0,0,0,58,67.16c-1.69.1-3.21.86-4.84,1.11a6,6,0,0,1-1.89.07,22,22,0,0,0-5-.09,4.19,4.19,0,0,0-1.27.37c-.11,0-.15.31-.17.48s.22.13.34.15a2.55,2.55,0,0,0,.78,0,7.68,7.68,0,0,1,4.17.16c.55.17,1.24-.16,1.83.11a3.48,3.48,0,0,1,.66.5l0,0c-.73.5-1.52.09-2.27.16a30.09,30.09,0,0,0-3.15,0A6.48,6.48,0,0,1,46,70c-.92,0-1.86-.06-2.78,0a30.7,30.7,0,0,1-5.42-.4A9.81,9.81,0,0,1,34.9,69a1.22,1.22,0,0,0-.54-.06l-3.43.34a7.64,7.64,0,0,1-3.43-.13,2.85,2.85,0,0,1-.93-.56c-.33-.31-.81-.69-.07-1.11a.24.24,0,0,0,.08-.2c-.19-1.26.85-1.31,1.6-1.56a16,16,0,0,1,2-.34c.67-.12.72-.16.38-.77s-.19-.45.3-.54a2.36,2.36,0,0,1,2.1.27c.15.11.45,0,.65.06a1.11,1.11,0,0,1,.56.41,1.68,1.68,0,0,0,1.81.75,3.36,3.36,0,0,1,.84,0l0,0c.14.16.33.48.43.46,1-.2,1.82.33,2.74.36.45,0,.9,0,1.24.36a.4.4,0,0,0,.4,0c.6-.43,1.23,0,1.84-.09.08,0,.18.11.26.17-.08.09-.16.26-.26.27-1.12.13-2.21.7-3.38.29a2.25,2.25,0,0,0-.78,0c-.07,0-.16.12-.2.21s.06.14.11.16a2.22,2.22,0,0,0,.63.21,14.78,14.78,0,0,1,3.5.38A2.13,2.13,0,0,0,44.6,68c.73-.32,1.42-.73,2.12-1.11.07,0,.14-.12.19-.1.27.09.53.29.79.28s.25-.38.44-.51a.61.61,0,0,1,.53,0,.85.85,0,0,0,.94,0c.09-.07.36-.08.4,0,.42.72.83.27,1.29,0,.19-.09.48,0,.72,0l-.17.09Zm-18.55.14v.1l.49-.14a2.33,2.33,0,0,0-.45-.27c-.68-.19-1.36-.36-2-.51A.81.81,0,0,0,31,66a.42.42,0,0,0-.21.34c0,.09.19.23.3.24C31.85,66.65,32.65,66.7,33.46,66.76Zm3.89.64,0-.09c.18,0,.36.06.54.07s.18-.07.18-.1,0-.22-.1-.25a1.31,1.31,0,0,0-.53-.14c-.29,0-.67-.19-.84.26Zm-5.54.77h0c.33,0,.67,0,1,0a1.15,1.15,0,0,0,.29-.08,1.39,1.39,0,0,0-.31-.1c-.59,0-1.18-.09-1.77-.1-.12,0-.24.11-.36.17a1.63,1.63,0,0,0,.37.13C31.29,68.19,31.55,68.17,31.81,68.17Zm-3.24-.45a4.31,4.31,0,0,0-.53,0c-.1,0-.19.07-.29.1A1.19,1.19,0,0,0,28,68c.09.06.2.14.29.12.29,0,.58-.14.86-.21Zm9.91.84a1.1,1.1,0,0,0-.26-.14c-.06,0-.13,0-.2.07a3.65,3.65,0,0,0,.31.24S38.42,68.64,38.48,68.56Z"/><path class="cls-1" d="M35.06,96.5c1.69.23,3.38.42,5.06.7,1.23.2,2.43.53,3.65.75.95.16,1.91.25,2.87.35s1.86.11,2.77.26a9.72,9.72,0,0,1,1.79.55c.09,0,.12.23.18.36-.16,0-.33.18-.46.15-.32-.08-.61-.28-.92-.34a4.26,4.26,0,0,0-1.74,0,6,6,0,0,1-2.31.07A10.45,10.45,0,0,1,43.13,99c-.63-.29-1.3-.51-2-.76A3.4,3.4,0,0,0,39,97.89c-.1,0-.25.07-.32,0-.88-.54-1.89,0-2.81-.37a3.13,3.13,0,0,0-1.1,0,6.27,6.27,0,0,1-.75,0,2.24,2.24,0,0,1-.5-.16l.4-.25c.08-.06.22-.14.22-.21C34.23,96.31,34.65,96.44,35.06,96.5Z"/><path class="cls-1" d="M83.27,36.25a6.71,6.71,0,0,1,.86.7,16.81,16.81,0,0,1,1.7,2.14c.77,1.21,1.76,2.28,2.62,3.43.5.65.93,1.34,1.39,2a2.75,2.75,0,0,0,.17.29c.77.78,1.55,1.54,2.31,2.33a5.73,5.73,0,0,1,.61.77c.06.09,0,.25,0,.38-.17,0-.41.09-.5,0-.57-.52-1.12-1.07-1.67-1.61-.18-.18-.33-.49-.54-.52-.6-.09-.75-.51-.92-1a3.63,3.63,0,0,0-.51-.84,23.18,23.18,0,0,1-2-2.65A4.89,4.89,0,0,0,85,39.8c-.07,0-.15-.07-.17-.13-.35-1-1.3-1.58-2-2.34a.55.55,0,0,1,0-.8A1.78,1.78,0,0,1,83.27,36.25Z"/><path class="cls-1" d="M45.92,102c-.36,0-.87-.13-1.39-.19a1.1,1.1,0,0,0-.54,0,8.49,8.49,0,0,1-3.4.29c-.18,0-.43,0-.54-.09-.61-.58-1.54-.45-2.13-.86-.77-.54-1.5-.23-2.24-.36a17.11,17.11,0,0,1-2.21-.58c-.53-.16-1-.36-1.56-.55-.08,0-.12-.16-.19-.24.11-.07.23-.21.33-.2.63.06,1.26.14,1.88.23a19.52,19.52,0,0,1,4.56,1.25,16.29,16.29,0,0,0,3.85.68,5.49,5.49,0,0,0,1.61-.27,2.58,2.58,0,0,1,1.72.16,6,6,0,0,0,1.51.28c.09,0,.17.1.26.15-.09.1-.16.28-.26.29C46.82,102,46.45,102,45.92,102Z"/><path class="cls-1" d="M52,88.27a3.67,3.67,0,0,1-2.25,0,10.44,10.44,0,0,0-3-.14,3.23,3.23,0,0,1-.87-.1c-.18,0-.35-.16-.53-.15-1.32.07-2.58-.45-3.9-.38a.38.38,0,0,1-.3-.23c0-.1.1-.26.2-.34a1.48,1.48,0,0,1,1.5-.11,8.59,8.59,0,0,0,4.68.34c.15,0,.32-.09.44,0a9.86,9.86,0,0,0,3.06.29c.4,0,.79.2,1.18.27.65.11,1.31.19,2,.28.49.06.69.29.62.72a.53.53,0,0,1-.85.38,3.11,3.11,0,0,0-1.49-.32c-.14,0-.27-.28-.41-.44a.75.75,0,0,0,.31.1c.07,0,.12-.13.18-.21s-.14-.06-.2,0A1.61,1.61,0,0,0,52,88.27Z"/><path class="cls-1" d="M58.73,73.6a32.62,32.62,0,0,0-4.29-.27C53,73.42,51.65,73,50.23,73a2.64,2.64,0,0,1-.87-.14,1.52,1.52,0,0,1-.38-.31,2.67,2.67,0,0,1,.45-.22c.43-.09.86-.17,1.29-.22s1-.23,1.44.24a.91.91,0,0,0,.81.14c1.1-.44,2.23-.06,3.34-.17a3.08,3.08,0,0,1,1.38.17,1.83,1.83,0,0,0,1.27.1,3.45,3.45,0,0,1,1.32,0,.49.49,0,0,1,.36.32.46.46,0,0,1-.28.39c-.53.15-1.07.24-1.61.34A.29.29,0,0,1,58.73,73.6Z"/><path class="cls-1" d="M34.09,85.84l3.06.33a3.28,3.28,0,0,0,.88,0,8.36,8.36,0,0,1,2.38.4c.32,0,.37.37.13.58s-.69.41-1,0-.59-.27-.95-.13a3.55,3.55,0,0,1-2.85.27c-.1,0-.23-.11-.32-.07-.93.38-1.82-.17-2.75-.09-.49,0-.85-.29-.8-.57a1,1,0,0,1,.88-.67Z"/><path class="cls-1" d="M93.33,71.51c-.06.12-.1.33-.2.36-.81.29-1.45.95-2.44.84-.48-.06-1,.33-1.54.42s-1.18.3-1.8.41c-1.45.25-2.88.66-4.32,1-.29.06-.84,0-.88-.14-.13-.45.31-.63.64-.75.68-.25,1.34-.71,2.1-.21a.36.36,0,0,0,.32,0c.48-.74,1.39-.36,2-.79a1,1,0,0,1,.62-.2c1.07.18,2-.42,3-.5a1.16,1.16,0,0,0,.63-.21,1.76,1.76,0,0,1,1.87-.18Z"/><path class="cls-1" d="M69.75,4.75a14.39,14.39,0,0,1-1.51-.62.59.59,0,0,1,0-1.12,2.08,2.08,0,0,0,1.19-1c.2-.44.74-.41,1.19-.31a1.06,1.06,0,0,1,.91.7.67.67,0,0,1-.46,1c-.47.17-.65.35-.5.87S70.38,4.77,69.75,4.75Z"/><path class="cls-1" d="M84.23,78.2c-.32.06-.64.13-1,.17a9.55,9.55,0,0,1-1.31.15c-.12,0-.24-.22-.37-.34a1.29,1.29,0,0,1,.35-.18l2.41-.52a28.59,28.59,0,0,0,5.32-1.34.35.35,0,0,1,.29.63,4.69,4.69,0,0,1-2.55,1A6.11,6.11,0,0,0,86.1,78l-1.84.35Z"/><path class="cls-1" d="M33.26,91.73a18.44,18.44,0,0,0-2-.26c-1,0-2,0-3,0a2.72,2.72,0,0,1-.84-.16c-.09,0-.22-.25-.19-.3s.25-.26.34-.23a4.22,4.22,0,0,0,2.25-.26,7.44,7.44,0,0,1,1.75.12,12.65,12.65,0,0,1,3.62.39,2.23,2.23,0,0,1,.51.19c.19.11.23.32,0,.41a2.42,2.42,0,0,1-.85.1c-.55,0-1.09-.12-1.64-.19C33.27,91.64,33.27,91.68,33.26,91.73Z"/><path class="cls-1" d="M82.33,88.79c-.24.06-.48.12-.72.2a2.38,2.38,0,0,1-.61.19c-.31,0-.71.13-.82-.3a2.76,2.76,0,0,1,.72-.35c.45-.18.9-.34,1.36-.49.64-.23,1.24-.69,2-.37.08,0,.33-.14.41-.27a3.49,3.49,0,0,1,2.06-1.2c.36-.14.56.09.52.47-.09.73-.7.94-1.23,1.15-1,.39-2,.68-2.93,1a6,6,0,0,1-.74.12Z"/><path class="cls-1" d="M36.8,65.5c0-.18.28-.44-.14-.49-.58-.08-1.17-.14-1.75-.23-.1,0-.22-.15-.27-.25s.12-.23.19-.23a3.71,3.71,0,0,1,1.29,0,3.2,3.2,0,0,0,1.19.07A21.82,21.82,0,0,1,43,64.6c.16,0,.28.2.42.3-.12.12-.23.3-.37.34a1.49,1.49,0,0,1-.63,0A5.5,5.5,0,0,0,40,65.16a17.24,17.24,0,0,1-2.28.19c-.31,0-.62.09-.93.13Z"/><path class="cls-1" d="M26.87,85c1.26.17,2.73.36,4.19.58.27,0,.68.1.59.5a.73.73,0,0,1-.77.66.86.86,0,0,1-.33,0,5.11,5.11,0,0,0-3-.42,2.07,2.07,0,0,1-1.29-.54,1.63,1.63,0,0,1-.31-.42,5.69,5.69,0,0,1,.52-.33C26.5,85,26.59,85,26.87,85Z"/><path class="cls-1" d="M31.49,97.29a4.49,4.49,0,0,1-.16-.48c-.07-.41-.23-.52-.58-.24a.86.86,0,0,1-1.12,0,2,2,0,0,0-.93-.18,7.67,7.67,0,0,1-2.79-.64c-.07,0-.1-.16-.15-.25s.2-.16.27-.14c1.43.41,2.94.07,4.38.38.93.2,1.87.37,2.8.57a2,2,0,0,1,.32.11,2.14,2.14,0,0,1-.26.19Z"/><path class="cls-1" d="M49.27,91.19c-1-.09-1.81-.13-2.61-.25a20,20,0,0,0-3.19-.18c-.21,0-.42-.19-.63-.29.21-.23.41-.47.61-.7,0,0,.08,0,.11,0,1.41.44,2.94,0,4.34.54.4.16.88.11,1.3.23.16,0,.26.28.39.43Z"/><path class="cls-1" d="M88.6,69.49l-.21-.1c0-.06.06-.16.11-.18.49-.18,1-.37,1.47-.51,1.5-.41,3-.8,4.51-1.22.45-.13.88-.36,1.34-.5.15,0,.34.06.51.1-.08.18-.11.46-.24.53a5,5,0,0,1-1.25.44c-1.19.25-2.4.44-3.58.7-.8.17-1.57.42-2.36.64Z"/><path class="cls-1" d="M67.87,8.16c-.89-.1-1.21-.28-1.21-.77s.24-.57,1.09-.7c.48-.07,1-.18,1.42-.27s.8.17.6.66a1.3,1.3,0,0,1-.55.65A10.11,10.11,0,0,1,67.87,8.16Z"/><path class="cls-1" d="M49.41,83.76c-.93-.21-1.89-.37-2.79-.67A1.52,1.52,0,0,0,45.48,83a.34.34,0,0,1-.28-.13c0-.06,0-.2.11-.28.28-.38.56-.83,1.12-.36,1.23,0,2.22,1,3.49.88.12,0,.27.26.41.4a3.21,3.21,0,0,1-.46.22,1.66,1.66,0,0,1-.44,0S49.42,83.74,49.41,83.76Z"/><path class="cls-1" d="M28.42,93.22c.64.11,1.28.24,1.92.34.25,0,.51,0,.76,0a2.46,2.46,0,0,1,.77.07c.16.06.26.28.39.44a1.48,1.48,0,0,1-.45.2,10.48,10.48,0,0,1-1.12,0c-1-.1-1.91-.23-2.87-.32-.3,0-.55-.1-.51-.42,0-.1.34-.19.53-.23a2.16,2.16,0,0,1,.56,0A.59.59,0,0,1,28.42,93.22Z"/><path class="cls-1" d="M62.44,89.72c-.68,0-1.3,0-1.92,0a.7.7,0,0,1-.1-.33,2.1,2.1,0,0,1,.85-.39c.95,0,1.9.1,2.85.19a2.67,2.67,0,0,1,.72.2,4.09,4.09,0,0,1,.46.25c-.21.12-.47.39-.63.34C63.9,89.74,63.12,90.16,62.44,89.72Z"/><path class="cls-1" d="M39.45,61.93c.39-.51.89-.33,1.31-.13a1.46,1.46,0,0,0,1,0,15.16,15.16,0,0,1,2.61,0c.09,0,.16.14.24.21-.1.09-.19.24-.3.26a17.1,17.1,0,0,1-1.88.12c-1,0-2.06-.06-3.09-.12-.07,0-.13-.19-.2-.3l.32-.08Z"/><path class="cls-1" d="M34.45,62.06a4.61,4.61,0,0,0-1.19-.39A8.75,8.75,0,0,0,32,62c-.7.08-1-.5-1.41-.92a.3.3,0,0,1,0-.3c0-.07.23-.12.26-.09.65.59,1.47.36,2.21.49.57.11,1.14.26,1.7.41a2.58,2.58,0,0,1,.51.23l-.57.28Z"/><path class="cls-1" d="M58.25,86.73c1.13.18,2.25.36,3.37.57a2.19,2.19,0,0,1,.63.35v0a6.67,6.67,0,0,1-3.65.21c-.51-.07-.55-.26-.35-1.12Z"/><path class="cls-1" d="M33.36,94c1.1.15,2,.26,2.92.4.1,0,.18.1.26.16a1.9,1.9,0,0,1-.21.19A1.29,1.29,0,0,1,35.2,95c-.6-.15-1.23-.14-1.84-.26-.2,0-.62-.07-.45-.45C33,94.13,33.29,94.07,33.36,94Z"/><path class="cls-1" d="M57.29,91.17a2.67,2.67,0,0,1,.43,0,11.1,11.1,0,0,0,2.22.47c.15,0,.29.18.43.27-.21.12-.5.4-.61.34-.79-.45-1.67-.22-2.48-.4a3.16,3.16,0,0,0-1.4-.07c-.1,0-.23-.13-.34-.19.08-.08.15-.2.23-.21C56.34,91.29,56.92,91.22,57.29,91.17Z"/><path class="cls-1" d="M81.89,85.78l-2.09.37c-.15,0-.3.13-.42.09a2.64,2.64,0,0,1-.55-.29c.12-.12.21-.3.36-.36a5.86,5.86,0,0,1,.94-.23c.42-.08.85-.14,1.28-.2a1.2,1.2,0,0,1,.53,0,9.16,9.16,0,0,1,.8.46L82,86Z"/><path class="cls-1" d="M61.62,70.18l-2,.15a2.22,2.22,0,0,1-.44.06c-.46,0-1.25.17-1.28-.28,0-.66.71-.34,1.14-.41l.65-.14a2,2,0,0,1,1.88.41v.23Z"/><path class="cls-1" d="M27.61,133.46a2.86,2.86,0,0,1-.49.72A3.41,3.41,0,0,0,25.76,136c-.05.16-.24.28-.37.4a.23.23,0,0,1-.2,0,.22.22,0,0,1-.07-.19,4.06,4.06,0,0,1,2.08-2.8C27.27,133.33,27.41,133.42,27.61,133.46Z"/><path class="cls-1" d="M64.84,69.77c.36.15.69.27,1,.41s.12.17,0,.26a8.5,8.5,0,0,0-.77.57c-.29.23-1.41.09-1.47-.23a.79.79,0,0,1,.23-.66A4.55,4.55,0,0,1,64.84,69.77Z"/><path class="cls-1" d="M80,35.3a1.2,1.2,0,0,1-.83-.83,2.92,2.92,0,0,0-1.4-1.79c-.13-.07-.19-.29-.29-.44.16,0,.37,0,.45,0,.29.31.69-.25.9.11a5.78,5.78,0,0,1,.36.93c.26.67.53,1.33.79,2Z"/><path class="cls-1" d="M51,90.91c.73.06,1.46.11,2.19.18.08,0,.23.15.22.19a.49.49,0,0,1-.21.32,1.28,1.28,0,0,1-.55.05,4,4,0,0,0-1.85,0,.52.52,0,0,1-.43-.08,2.32,2.32,0,0,1-.35-.46,1.34,1.34,0,0,1,.42-.23,2,2,0,0,1,.55,0Z"/><path class="cls-1" d="M50.05,56.81a8.5,8.5,0,0,1,.93.34.43.43,0,0,1,.13.38.42.42,0,0,1-.32.23,6.18,6.18,0,0,1-1-.25c-.18,0-.33-.18-.5-.21a5.83,5.83,0,0,0-.83-.08c.29-.09.57-.2.87-.28A6.36,6.36,0,0,1,50.05,56.81Z"/><path class="cls-1" d="M37.92,94.74A10,10,0,0,1,39,94.62c.14,0,.28.18.42.28-.14.09-.32.29-.41.25-.7-.26-1.28.22-1.91.29a1.53,1.53,0,0,1-.5-.1c.09-.14.16-.35.29-.41a8.48,8.48,0,0,1,1-.32Z"/><path class="cls-1" d="M61.6,74.2c.06-.17.12-.35.19-.51s.29-.62.63-.46.88,0,.85.64c0,.24.31.48-.24.4s-.94,0-1.41,0Z"/><path class="cls-1" d="M40,92.32,37.12,92c-.08,0-.15-.13-.23-.19a1.28,1.28,0,0,1,.27,0c.79,0,1.58,0,2.37,0a1.34,1.34,0,0,1,.51.14.8.8,0,0,1,.23.22Z"/><path class="cls-1" d="M45,46.49c.63.13,1.2.24,1.76.4.09,0,.1.29.15.44a1.2,1.2,0,0,1-.38,0c-.49-.07-1-.13-1.46-.24a1.79,1.79,0,0,1-.53-.31Z"/><path class="cls-1" d="M93.35,71.53c.06-.2.07-.53.19-.57a5.41,5.41,0,0,1,1.27-.26.38.38,0,0,1,.32.22c0,.08-.06.28-.16.33-.51.28-1,.61-1.64.26Z"/><path class="cls-1" d="M37.22,62c.4,0,.7,0,1,0a.29.29,0,0,1,.2.2c0,.09-.06.27-.12.28a4.34,4.34,0,0,1-.94.13c-.16,0-.32-.16-.48-.26s-.67.22-.79-.27L37,62A.88.88,0,0,1,37.22,62Z"/><path class="cls-1" d="M53.11,44.92a3,3,0,0,1-.65-.05c-.07,0-.17-.21-.16-.22.21-.19.44-.51.66-.51a4.17,4.17,0,0,1,1.12.36c-.07.12-.11.32-.19.34A4,4,0,0,1,53.11,44.92Z"/><path class="cls-1" d="M57.1,89.22c-.36,0-.73,0-1.09-.06A1.58,1.58,0,0,1,55.4,89c-.08,0-.11-.26-.1-.39s.16-.14.25-.15a8.28,8.28,0,0,1,1-.09c.52,0,.66.23.55.87Z"/><path class="cls-1" d="M57.09,89.24l.68-.36c.09,0,.17-.2.25-.2a4.83,4.83,0,0,1,.84.11.31.31,0,0,1,0,.27c-.21.19-.44.49-.66.49a4.42,4.42,0,0,1-1.15-.33Z"/><path class="cls-1" d="M40.34,95.16l2,.1c.06,0,.16.08.16.12a.5.5,0,0,1-.09.29.59.59,0,0,1-.4.12,12.92,12.92,0,0,1-1.52-.21.41.41,0,0,1-.25-.28C40.22,95.21,40.39,95.11,40.34,95.16Z"/><path class="cls-1" d="M86,70.15a2,2,0,0,1-.45.27c-.6.16-1.2.3-1.81.43a2.27,2.27,0,0,1-.52,0l.44-.19c.29-.12.59-.25.89-.36s.69-.24,1-.34C85.67,69.93,85.77,70,86,70.15Z"/><path class="cls-1" d="M62.25,87.65c.52-.18,1-.37,1.56-.51.15,0,.35.08.52.12a2.65,2.65,0,0,1-.34.33c-.89.58-1,.58-1.73,0Z"/><path class="cls-1" d="M71,96.37c-.12.23-.16.44-.29.52s-.31,0-.45-.09-.15-.16-.23-.23-.34-.25-.51-.37a4.16,4.16,0,0,1,1-.32C70.62,95.88,70.79,96.19,71,96.37Z"/><path class="cls-1" d="M50.66,102.8a2,2,0,0,1-.63.09.45.45,0,0,1-.31-.33c0-.13.24-.36.32-.35a12.12,12.12,0,0,1,1.34.39s0,.06,0,.08-.08.16-.11.16C51.1,102.84,50.89,102.82,50.66,102.8Z"/><path class="cls-1" d="M69.43,83c-.14-.06-.3-.1-.31-.16s0-.34.06-.4a2.6,2.6,0,0,1,.75-.41c.13,0,.31.06.47.1-.06.17-.08.4-.2.49A4.59,4.59,0,0,1,69.43,83Z"/><path class="cls-1" d="M42.18,92.8l-.78-.36a2.17,2.17,0,0,1,.71-.36,4.31,4.31,0,0,1,1.07.1.31.31,0,0,1,0,.19C42.88,92.52,42.55,92.65,42.18,92.8Z"/><path class="cls-1" d="M80.92,74.83c-.08.11-.12.25-.19.28a11.89,11.89,0,0,1-1.16.35,2.16,2.16,0,0,1-.61,0,4,4,0,0,1,.47-.29c.4-.16.8-.31,1.21-.44C80.7,74.65,80.81,74.77,80.92,74.83Z"/><path class="cls-1" d="M48.37,47.39c-.29-.12-.47-.17-.63-.25s-.13-.13-.12-.17.11-.18.19-.2a2,2,0,0,1,.55,0c.31,0,.61.09.92.14Z"/><path class="cls-1" d="M66.45,95.32s0,.08,0,.09c-.42.2-.84.39-1.27.56-.05,0-.2-.1-.23-.18s0-.27.07-.29c.44-.13.89-.24,1.34-.34C66.35,95.16,66.41,95.27,66.45,95.32Z"/><path class="cls-1" d="M66.58,93.38a3.52,3.52,0,0,1-.46,0c-.16-.06-.31-.15-.47-.22.17,0,.35-.12.53-.16s.63-.14,1-.18a.41.41,0,0,1,.27.08c0,.13,0,.35-.11.37A4.67,4.67,0,0,1,66.58,93.38Z"/><path class="cls-1" d="M53.29,102.81a.91.91,0,0,1,.33,0,1.24,1.24,0,0,1,.61.29c.12.16-.31.42-.66.33s-.67-.22-1-.34c0,0-.06-.1-.09-.16s.11-.09.17-.09h.65Z"/><path class="cls-1" d="M78.61,82.71a2,2,0,0,1,.52-.38c.28-.08.58-.48.86-.09.05.07-.19.43-.35.6s-.6.45-.86,0c0,0-.13-.07-.19-.11Z"/><path class="cls-1" d="M64.77,93c-.12.14-.21.3-.25.29a9.12,9.12,0,0,1-1-.35s0-.27,0-.28a1.14,1.14,0,0,1,.59-.09A2.83,2.83,0,0,1,64.77,93Z"/><path class="cls-1" d="M70.43,66.77c0,.06,0,.11,0,.12s-.14.08-.19.06c-.25-.14-.5-.28-.74-.44a2.2,2.2,0,0,1-.33-.35c.22,0,.51-.17.66-.08A3.24,3.24,0,0,1,70.43,66.77Z"/><path class="cls-1" d="M67.8,95.41c.11.06.55.24.53.31-.09.41-.44.24-.71.2a.83.83,0,0,1-.32-.07,1.44,1.44,0,0,1-.27-.28,1.39,1.39,0,0,1,.28-.12A3,3,0,0,1,67.8,95.41Z"/><path class="cls-1" d="M52.63,70l.19-.12a.67.67,0,0,1,1,.14.3.3,0,0,1-.05.27c-.3.21-.71.08-1.08-.32Z"/><path class="cls-1" d="M45.06,92.8c-.05,0-.1.13-.14.12a2.9,2.9,0,0,1-.65-.14,5,5,0,0,1-.6-.32c.21-.29.43-.15.67,0s.42.12.62.2C45,92.64,45,92.74,45.06,92.8Z"/><path class="cls-1" d="M69.24,85.12c.08.06.27.13.32.25s-.38.5-.73.44c-.1,0-.27-.16-.27-.26C68.55,85.15,68.86,85.14,69.24,85.12Z"/><path class="cls-1" d="M78.59,82.69a1.05,1.05,0,0,1-.89.87c-.12,0-.26-.07-.4-.12,0-.12.07-.33.16-.37.37-.14.76-.24,1.15-.36Z"/><path class="cls-1" d="M55.77,70.23l-.55-.12c.21-.08.42-.19.64-.25a1.25,1.25,0,0,1,.54-.06c.11,0,.21.16.31.24-.08.06-.16.17-.25.18A4.81,4.81,0,0,1,55.77,70.23Z"/><path class="cls-1" d="M61.63,95.69a2,2,0,0,1-.68.14c-.11,0-.19-.21-.29-.32a1.59,1.59,0,0,1,.53-.25C61.3,95.26,61.42,95.47,61.63,95.69Z"/><path class="cls-1" d="M82.39,34.83c-.23.19-.38.38-.47.36a.62.62,0,0,1-.34-.35c0-.07.15-.32.19-.31A4.15,4.15,0,0,1,82.39,34.83Z"/><path class="cls-1" d="M60,89c-.26.29-.44.49-.63.68,0,0-.12,0-.18-.06l.31-.84Z"/><path class="cls-1" d="M55.17,91.64c-.21.13-.32.24-.44.26-.37,0-.41-.24-.41-.5,0-.07.15-.22.17-.21C54.69,91.31,54.89,91.44,55.17,91.64Z"/><path class="cls-1" d="M90.69,76.41s-.16-.09-.19-.17.29-.6.62-.62a.27.27,0,0,1,.2.17C91.39,76.12,91.13,76.39,90.69,76.41Z"/><path class="cls-1" d="M62.21,92.76a3.11,3.11,0,0,1-.44-.07c-.05,0-.07-.1-.11-.16.14-.08.28-.24.42-.24a2.13,2.13,0,0,1,.54.24c0,.06,0,.15-.1.17A1.55,1.55,0,0,1,62.21,92.76Z"/><path class="cls-1" d="M97.12,83.65l-.58.33c-.06-.12-.21-.28-.17-.34a.86.86,0,0,1,.39-.31S96.94,83.48,97.12,83.65Z"/><path class="cls-1" d="M47.52,59.23a.78.78,0,0,1,.92-.18.29.29,0,0,1,.12.25c0,.08-.16.21-.22.19-.28-.07-.56-.19-.83-.28Z"/><path class="cls-1" d="M29.13,98.69c.16.14.34.28.51.45,0,0-.05.11-.08.17l-.67-.42Z"/><path class="cls-1" d="M30.78,100.31c.2-.17.3-.31.4-.31a1.49,1.49,0,0,1,.46.16c-.05.11-.11.33-.16.32A3,3,0,0,1,30.78,100.31Z"/><path class="cls-1" d="M70.09,0l.37.28c-.09.09-.17.25-.27.26S70,.42,69.86.36Z"/><path class="cls-1" d="M52.09,59.21l.59.49c-.07.06-.17.2-.21.18a3,3,0,0,1-.54-.32A2.58,2.58,0,0,1,52.09,59.21Z"/><path class="cls-1" d="M59.11,59.64a1.7,1.7,0,0,1-.42.22c-.14,0-.28-.11-.42-.16a1.08,1.08,0,0,1,.33-.21,1.84,1.84,0,0,1,.47,0A1.24,1.24,0,0,0,59.11,59.64Z"/><path class="cls-1" d="M98.12,53.77c-.22.11-.34.23-.45.21s-.18-.17-.26-.26c.1-.08.2-.21.31-.21S97.93,53.64,98.12,53.77Z"/><path class="cls-1" d="M100.89,82.5a6.09,6.09,0,0,1-.51.41s-.15-.1-.23-.15c.14-.14.27-.3.42-.43S100.72,82.41,100.89,82.5Z"/><path class="cls-1" d="M49.11,50.11c-.15-.14-.27-.24-.38-.36s.15-.21.17-.2a1.82,1.82,0,0,1,.41.27Z"/><path class="cls-1" d="M60.69,103.47a2.17,2.17,0,0,1,.19.43c0,.07-.15.21-.19.2a1.54,1.54,0,0,1-.31-.21Z"/><path class="cls-1" d="M49.38,102.39c-.33.09-.47.19-.55.15a2.54,2.54,0,0,1-.46-.35,1.14,1.14,0,0,1,.4-.08A2.71,2.71,0,0,1,49.38,102.39Z"/><path class="cls-1" d="M51.21,47.17c-.27.09-.4.19-.5.16s-.25-.18-.38-.28a1.25,1.25,0,0,1,.4-.13C50.85,46.93,51,47,51.21,47.17Z"/><path class="cls-1" d="M87.42,69.8l-.71.22s-.08,0-.08,0,0-.16,0-.17c.2-.08.41-.15.61-.21C87.3,69.59,87.35,69.69,87.42,69.8Z"/><path class="cls-1" d="M50.89,59.67a2.1,2.1,0,0,1-.43,0c-.07,0-.18-.14-.16-.19.09-.3.44-.31.79,0l0,0-.24.25Z"/><path class="cls-1" d="M51.09,59.46c.52.16.27.46.12.73,0,0-.27,0-.3-.11a.92.92,0,0,1,0-.41l0,0,.24-.25Z"/><path class="cls-1" d="M80,78.68l.26.23a3.8,3.8,0,0,1-.38.29s-.11-.06-.16-.09Z"/><path class="cls-1" d="M62.26,70c-.11.19-.23.38-.35.57l-.29-.35,0,0,.24-.25v0h.42Z"/><path class="cls-1" d="M95.84,81l.3.17c-.07.07-.12.18-.19.19a.71.71,0,0,1-.3-.1Z"/><path class="cls-1" d="M54.75,70.05c-.08.07-.15.17-.23.18s-.14-.1-.21-.16a1.07,1.07,0,0,1,.27-.16S54.67,70,54.75,70.05Z"/><path class="cls-1" d="M92.84,43.09c.09.31.17.63.26.94h0a.55.55,0,0,1-.26-.92Z"/><path class="cls-1" d="M64.3,95.89a2.13,2.13,0,0,1-.46.14c-.05,0-.09-.14-.14-.22a.67.67,0,0,1,.26-.12C64,95.69,64.11,95.77,64.3,95.89Z"/><path class="cls-1" d="M80.42,33a2.08,2.08,0,0,1-.12.22L79.85,33c.07-.08.16-.22.21-.21A1.43,1.43,0,0,1,80.42,33Z"/><path class="cls-1" d="M56.19,94.66a1.11,1.11,0,0,1-.29.07s0-.15-.07-.22a1,1,0,0,1,.29,0S56.16,94.58,56.19,94.66Z"/><path class="cls-1" d="M58.39,102.94c-.3.15-.39.24-.49.24a1.51,1.51,0,0,1-.33-.13c0-.07.1-.19.17-.21A2.92,2.92,0,0,1,58.39,102.94Z"/><path class="cls-1" d="M103.69,54.82c0,.07-.11.18-.12.17s-.17-.1-.26-.15l.14-.21Z"/><path class="cls-1" d="M65.37,87.72l-.24.19c0-.08-.14-.15-.13-.23s.11-.12.17-.19Z"/><path class="cls-1" d="M97.68,70.49l-.2-.1a.81.81,0,0,1,.19-.18s.11.05.18.07Z"/><path class="cls-1" d="M96.74,52.65l.18.08a2.39,2.39,0,0,1-.13.21c-.05,0-.12-.08-.14-.14S96.71,52.7,96.74,52.65Z"/><path class="cls-1" d="M95.45,78.36c-.1,0-.19.08-.29.1s-.06-.09-.1-.13a1.75,1.75,0,0,1,.28-.13S95.41,78.29,95.45,78.36Z"/><path class="cls-1" d="M79,79.57l-.21-.14.18-.24s.16.09.16.12A1.05,1.05,0,0,1,79,79.57Z"/><path class="cls-1" d="M50.83,94.19c-.23.09-.33.17-.42.16s-.14-.11-.18-.19.07-.16.11-.15A1.84,1.84,0,0,1,50.83,94.19Z"/><path class="cls-1" d="M97.68,83.38l.21.1a1.31,1.31,0,0,1-.2.21s-.1-.06-.16-.09Z"/><path class="cls-1" d="M52.38,99.48l.11.16-.23.1c0-.06-.07-.14,0-.18S52.32,99.51,52.38,99.48Z"/><path class="cls-1" d="M81,82.83a1.19,1.19,0,0,1-.26,0s-.06-.15-.06-.15a1.28,1.28,0,0,1,.24-.11A1.56,1.56,0,0,1,81,82.83Z"/><path class="cls-1" d="M49.25,80.55c-.07,0-.14.08-.19.06a.18.18,0,0,1-.07-.17s.12,0,.18-.08S49.22,80.49,49.25,80.55Z"/><path class="cls-1" d="M63,70.66l-.13.11a.48.48,0,0,1-.08-.16s.06-.06.07-.06Z"/><path class="cls-1" d="M97,70.64a1.24,1.24,0,0,1-.27,0s0-.11-.07-.17a.88.88,0,0,1,.27-.06S97,70.54,97,70.64Z"/><path class="cls-1" d="M44.59,65.2s-.1-.09-.09-.12a.45.45,0,0,1,.12-.16s.12.09.11.1A.59.59,0,0,1,44.59,65.2Z"/><path class="cls-1" d="M82.82,35.81l-.15-.12a1.55,1.55,0,0,1,.22-.12s.07.1.1.15Z"/><path class="cls-1" d="M109.85,58.24l-.09,0,.12-.05Z"/><path class="cls-1" d="M55.72,103.06l-.12.1-.05-.07a.63.63,0,0,1,.13-.11Z"/><path class="cls-1" d="M99.34,83.09l.12.13a.56.56,0,0,1-.16.07s-.06-.05-.06-.06A.71.71,0,0,1,99.34,83.09Z"/><path class="cls-1" d="M66.34,89.83l-.3-.09.06-.12.22.23Z"/><path class="cls-1" d="M26.51,93.87l.16-.23s0,.07,0,.08l-.15.14Z"/><path class="cls-1" d="M77.94,31.5l-.11-.13s.06,0,.07,0a.18.18,0,0,1,0,.1Z"/><path class="cls-1" d="M77.92,31.51a1.59,1.59,0,0,0,.13.13l-.11-.14Z"/><path class="cls-1" d="M79.93,35.31l.14.13L80,35.3Z"/><polygon class="cls-1" points="95.4 46.63 95.32 46.58 95.41 46.55 95.4 46.63"/><path class="cls-1" d="M106.1,90.54l0-.16-.06.15Z"/><path class="cls-1" d="M49.63,59.59l-.13,0a.15.15,0,0,1,0-.08Z"/><path class="cls-1" d="M97.88,77.65l0,.08-.06-.11Z"/><path class="cls-1" d="M91.76,75.53l-.09,0,.11-.1.06.08Z"/><path class="cls-1" d="M24.72,137.7h0Z"/><polygon class="cls-1" points="26.52 93.86 26.48 93.9 26.51 93.87 26.52 93.86"/><path class="cls-1" d="M56.9,103.26v0Z"/><path class="cls-1" d="M56.91,103.28v0Z"/><polygon class="cls-1" points="59.48 95.37 59.46 95.31 59.52 95.32 59.48 95.37"/><polygon class="cls-1" points="62.28 69.97 62.3 69.93 62.27 69.95 62.28 69.97"/><path class="cls-1" d="M61.61,70h.23v0H61.6Z"/><path class="cls-1" d="M93.35,44.25c-.08-.08-.16-.15-.23-.23h0l.23.23Z"/><polygon class="cls-1" points="93.33 44.26 93.39 44.3 93.35 44.25 93.33 44.26"/><path class="cls-1" d="M76.57,86.73h0Z"/><path class="cls-1" d="M76.59,86.74h0Z"/><path class="cls-1" d="M68.08,48.1l.74.72s0,.09,0,.08a2.86,2.86,0,0,1-.79-.2c-.09,0,0-.32,0-.5C67.94,48.18,68,48.16,68.08,48.1Z"/></g></g></svg>